<svg width="26" height="26" viewBox="0 0 26 26" fill="none" xmlns="http://www.w3.org/2000/svg">
<path d="M12.3207 3.31947C12.3682 3.22355 12.4415 3.14281 12.5324 3.08636C12.6234 3.02991 12.7283 3 12.8353 3C12.9423 3 13.0472 3.02991 13.1381 3.08636C13.2291 3.14281 13.3024 3.22355 13.3499 3.31947L15.8524 8.38838C16.0172 8.72202 16.2606 9.01066 16.5615 9.22954C16.8625 9.44843 17.2121 9.59101 17.5803 9.64505L23.1768 10.4641C23.2828 10.4794 23.3825 10.5241 23.4644 10.5932C23.5463 10.6622 23.6073 10.7528 23.6405 10.8547C23.6736 10.9566 23.6776 11.0657 23.6519 11.1698C23.6263 11.2738 23.572 11.3686 23.4953 11.4434L19.448 15.3846C19.181 15.6447 18.9813 15.9657 18.866 16.3202C18.7507 16.6746 18.7233 17.0517 18.786 17.4191L19.7415 22.9874C19.7603 23.0934 19.7488 23.2025 19.7085 23.3023C19.6682 23.4021 19.6006 23.4885 19.5135 23.5518C19.4265 23.6151 19.3233 23.6526 19.216 23.66C19.1086 23.6675 19.0013 23.6446 18.9063 23.5941L13.9035 20.9637C13.5738 20.7906 13.2071 20.7002 12.8347 20.7002C12.4624 20.7002 12.0957 20.7906 11.766 20.9637L6.76428 23.5941C6.66931 23.6443 6.56213 23.6669 6.45494 23.6593C6.34775 23.6517 6.24484 23.6142 6.15794 23.551C6.07103 23.4877 6.0036 23.4014 5.96333 23.3018C5.92305 23.2022 5.91155 23.0932 5.93012 22.9874L6.88453 17.4201C6.94758 17.0526 6.92027 16.6752 6.80495 16.3206C6.68963 15.966 6.48978 15.6447 6.22262 15.3846L2.17528 11.4445C2.09793 11.3698 2.04311 11.2748 2.01708 11.1705C1.99104 11.0661 1.99484 10.9566 2.02804 10.8543C2.06123 10.752 2.12249 10.661 2.20483 10.5919C2.28718 10.5227 2.3873 10.478 2.49378 10.463L8.0892 9.64505C8.45781 9.59143 8.80787 9.44903 9.10925 9.23012C9.41063 9.01121 9.6543 8.72234 9.81928 8.38838L12.3207 3.31947Z" fill="white" fill-opacity="0.5" stroke="white" stroke-width="2.49167" stroke-linecap="round" stroke-linejoin="round"/>
</svg>
