<svg width="16" height="16" viewBox="0 0 16 16" fill="none" xmlns="http://www.w3.org/2000/svg">
<path d="M8 1.33301C7.46957 1.33301 6.96086 1.54372 6.58579 1.91879C6.21071 2.29387 6 2.80257 6 3.33301V7.99967C6 8.53011 6.21071 9.03882 6.58579 9.41389C6.96086 9.78896 7.46957 9.99967 8 9.99967C8.53043 9.99967 9.03914 9.78896 9.41421 9.41389C9.78929 9.03882 10 8.53011 10 7.99967V3.33301C10 2.80257 9.78929 2.29387 9.41421 1.91879C9.03914 1.54372 8.53043 1.33301 8 1.33301Z" stroke="#888888" stroke-linecap="round" stroke-linejoin="round"/>
<path d="M12.6673 6.66699V8.00033C12.6673 9.238 12.1757 10.425 11.3005 11.3002C10.4253 12.1753 9.23833 12.667 8.00065 12.667C6.76297 12.667 5.57599 12.1753 4.70082 11.3002C3.82565 10.425 3.33398 9.238 3.33398 8.00033V6.66699" stroke="#888888" stroke-linecap="round" stroke-linejoin="round"/>
<path d="M8 12.667V14.667" stroke="#888888" stroke-linecap="round" stroke-linejoin="round"/>
</svg>
