<svg width="13" height="13" viewBox="0 0 13 13" fill="none" xmlns="http://www.w3.org/2000/svg">
<path d="M12.2045 11.4609L11.4594 12.2061C11.3711 12.2943 11.2514 12.3439 11.1265 12.3439C11.0017 12.3439 10.882 12.2943 10.7937 12.2061L7.77362 9.18588C7.71939 9.13152 7.65268 9.09125 7.57932 9.06857C7.50596 9.04589 7.42816 9.0415 7.35272 9.05578C7.27727 9.07006 7.20645 9.10257 7.14645 9.15048C7.08645 9.1984 7.03907 9.26026 7.00845 9.33068L5.95958 12.0624C5.92059 12.1483 5.85675 12.2204 5.77631 12.2695C5.69586 12.3187 5.60253 12.3425 5.50837 12.338C5.41422 12.3335 5.32358 12.3009 5.24819 12.2443C5.17281 12.1877 5.11614 12.1098 5.08552 12.0206L2.00718 2.59872C1.98199 2.51691 1.97958 2.42977 2.0002 2.34669C2.02083 2.2636 2.06371 2.18771 2.12424 2.12718C2.18477 2.06665 2.26066 2.02376 2.34374 2.00313C2.42683 1.9825 2.51396 1.98492 2.59577 2.01011L12.0191 5.08502C12.1083 5.11564 12.1862 5.17231 12.2428 5.2477C12.2994 5.32309 12.332 5.41373 12.3365 5.50789C12.341 5.60205 12.3172 5.69539 12.268 5.77583C12.2189 5.85628 12.1467 5.92013 12.0609 5.95911L9.32927 7.00802C9.25885 7.03864 9.19699 7.08602 9.14908 7.14602C9.10116 7.20603 9.06865 7.27685 9.05437 7.3523C9.0401 7.42775 9.04449 7.50554 9.06716 7.57891C9.08984 7.65227 9.13011 7.71898 9.18448 7.77321L12.2045 10.7934C12.2485 10.8371 12.2834 10.8891 12.3072 10.9464C12.331 11.0037 12.3432 11.0651 12.3432 11.1271C12.3432 11.1892 12.331 11.2506 12.3072 11.3078C12.2834 11.3651 12.2485 11.4171 12.2045 11.4609Z" fill="#38A9D7" fill-opacity="0.5"/>
<path d="M2.21094 1.44336C2.3969 1.39837 2.59221 1.40547 2.77441 1.46387L12.1973 4.54102C12.3964 4.60767 12.5716 4.73294 12.6982 4.90039C12.8249 5.06788 12.8973 5.27073 12.9072 5.48047C12.917 5.68992 12.864 5.8977 12.7539 6.07617C12.6436 6.25487 12.481 6.39629 12.2891 6.48145L9.69629 7.47656L12.6074 10.3887C12.7041 10.4854 12.7817 10.6002 12.834 10.7266C12.8862 10.8528 12.9131 10.9884 12.9131 11.125C12.9131 11.2618 12.8863 11.3981 12.834 11.5244C12.7816 11.6507 12.7041 11.7657 12.6074 11.8623L11.8613 12.6084C11.7647 12.7051 11.6497 12.7816 11.5234 12.834C11.3972 12.8863 11.2617 12.913 11.125 12.9131C10.9884 12.9131 10.8528 12.8862 10.7266 12.834C10.6002 12.7816 10.4844 12.7051 10.3877 12.6084L7.47754 9.69629L6.49219 12.2627C6.3332 12.551 6.2264 12.6608 6.09961 12.7441C5.97275 12.8274 5.82966 12.8818 5.68066 12.9033L5.53027 12.9141H5.47949C5.26863 12.9051 5.06528 12.8311 4.89746 12.7031C4.72974 12.5751 4.60538 12.3982 4.54102 12.1973L1.46387 2.77441C1.40545 2.59216 1.39833 2.39695 1.44336 2.21094C1.48842 2.0249 1.58438 1.85508 1.71973 1.71973C1.85507 1.5844 2.02493 1.48841 2.21094 1.44336ZM5.5332 11.5654L6.47168 9.12012C6.55012 8.93994 6.65415 8.80374 6.78613 8.69824C6.91874 8.59231 7.07545 8.51995 7.24219 8.48828C7.30715 8.47646 7.37243 8.47089 7.4375 8.4707L7.54102 8.47559C7.779 8.4996 8.00326 8.60471 8.17383 8.77539L11.124 11.7295L11.7295 11.124L8.78027 8.17578C8.66039 8.05494 8.57153 7.9071 8.52148 7.74512C8.47147 7.58292 8.46156 7.41091 8.49316 7.24414C8.52481 7.07724 8.59708 6.9208 8.70312 6.78809C8.80917 6.65539 8.94576 6.5501 9.10156 6.48242L11.5654 5.53516L2.60938 2.60938L5.5332 11.5654Z" fill="#38A9D7"/>
</svg>
