<svg width="20" height="20" viewBox="0 0 20 20" fill="none" xmlns="http://www.w3.org/2000/svg">
<path d="M5.89844 9.41406V17.6055C5.89885 17.7598 5.86112 17.912 5.78861 18.0482C5.7161 18.1845 5.61107 18.3008 5.48282 18.3867C5.08524 18.6514 4.61827 18.7927 4.14063 18.7927C3.663 18.7927 3.19602 18.6514 2.79844 18.3867C2.6702 18.3008 2.56516 18.1845 2.49265 18.0482C2.42014 17.912 2.38242 17.7598 2.38282 17.6055V9.41406" fill="#97CFE6" fill-opacity="0.5"/>
<path d="M5.89844 9.41406V17.6055C5.89885 17.7598 5.86112 17.912 5.78861 18.0482C5.7161 18.1845 5.61107 18.3008 5.48282 18.3867C5.08524 18.6514 4.61827 18.7927 4.14063 18.7927C3.663 18.7927 3.19602 18.6514 2.79844 18.3867C2.6702 18.3008 2.56516 18.1845 2.49265 18.0482C2.42014 17.912 2.38242 17.7598 2.38282 17.6055V9.41406" stroke="#38A9D7" stroke-linecap="round" stroke-linejoin="round"/>
<path d="M2.38281 9.41406C2.38281 9.72484 2.56801 10.023 2.89766 10.2427C3.22732 10.4625 3.67442 10.5859 4.14062 10.5859C4.60683 10.5859 5.05393 10.4625 5.38359 10.2427C5.71324 10.023 5.89844 9.72484 5.89844 9.41406C5.89844 9.10328 5.71324 8.80516 5.38359 8.58539C5.05393 8.36566 4.60683 8.24219 4.14062 8.24219C3.67442 8.24219 3.22732 8.36566 2.89766 8.58539C2.56801 8.80516 2.38281 9.10328 2.38281 9.41406Z" fill="#97CFE6" stroke="#38A9D7" stroke-linecap="round" stroke-linejoin="round"/>
<path d="M11.7578 5.89844V17.6055C11.7582 17.7598 11.7205 17.912 11.648 18.0482C11.5755 18.1845 11.4705 18.3008 11.3422 18.3867C10.9446 18.6514 10.4777 18.7927 10 18.7927C9.52235 18.7927 9.05539 18.6514 8.65782 18.3867C8.52953 18.3008 8.42453 18.1845 8.35203 18.0482C8.27952 17.912 8.24179 17.7598 8.24219 17.6055V5.89844" fill="#97CFE6" fill-opacity="0.5"/>
<path d="M11.7578 5.89844V17.6055C11.7582 17.7598 11.7205 17.912 11.648 18.0482C11.5755 18.1845 11.4705 18.3008 11.3422 18.3867C10.9446 18.6514 10.4777 18.7927 10 18.7927C9.52235 18.7927 9.05539 18.6514 8.65782 18.3867C8.52953 18.3008 8.42453 18.1845 8.35203 18.0482C8.27952 17.912 8.24179 17.7598 8.24219 17.6055V5.89844" stroke="#38A9D7" stroke-linecap="round" stroke-linejoin="round"/>
<path d="M8.24219 5.89844C8.24219 6.20923 8.42738 6.50731 8.75703 6.72708C9.08672 6.94684 9.53383 7.07031 10 7.07031C10.4662 7.07031 10.9133 6.94684 11.243 6.72708C11.5726 6.50731 11.7578 6.20923 11.7578 5.89844C11.7578 5.58764 11.5726 5.28956 11.243 5.0698C10.9133 4.85003 10.4662 4.72656 10 4.72656C9.53383 4.72656 9.08672 4.85003 8.75703 5.0698C8.42738 5.28956 8.24219 5.58764 8.24219 5.89844Z" fill="#97CFE6" stroke="#38A9D7" stroke-linecap="round" stroke-linejoin="round"/>
<path d="M17.6172 2.38281V17.6055C17.6176 17.7598 17.5798 17.912 17.5073 18.0482C17.4348 18.1845 17.3298 18.3008 17.2016 18.3867C16.804 18.6514 16.337 18.7927 15.8594 18.7927C15.3817 18.7927 14.9148 18.6514 14.5172 18.3867C14.3889 18.3008 14.2839 18.1845 14.2114 18.0482C14.1389 17.912 14.1012 17.7598 14.1016 17.6055V2.38281" fill="#97CFE6" fill-opacity="0.5"/>
<path d="M17.6172 2.38281V17.6055C17.6176 17.7598 17.5798 17.912 17.5073 18.0482C17.4348 18.1845 17.3298 18.3008 17.2016 18.3867C16.804 18.6514 16.337 18.7927 15.8594 18.7927C15.3817 18.7927 14.9148 18.6514 14.5172 18.3867C14.3889 18.3008 14.2839 18.1845 14.2114 18.0482C14.1389 17.912 14.1012 17.7598 14.1016 17.6055V2.38281" stroke="#38A9D7" stroke-linecap="round" stroke-linejoin="round"/>
<path d="M14.1016 2.38281C14.1016 2.69361 14.2868 2.99169 14.6164 3.21145C14.9461 3.43122 15.3932 3.55469 15.8594 3.55469C16.3255 3.55469 16.7727 3.43122 17.1023 3.21145C17.432 2.99169 17.6172 2.69361 17.6172 2.38281C17.6172 2.07202 17.432 1.77394 17.1023 1.55417C16.7727 1.3344 16.3255 1.21094 15.8594 1.21094C15.3932 1.21094 14.9461 1.3344 14.6164 1.55417C14.2868 1.77394 14.1016 2.07202 14.1016 2.38281Z" fill="#97CFE6" stroke="#38A9D7" stroke-linecap="round" stroke-linejoin="round"/>
</svg>
