<svg width="26" height="29" viewBox="0 0 26 29" fill="none" xmlns="http://www.w3.org/2000/svg">
<path d="M12.5273 0C12.876 0 13.2185 0.0949582 13.5225 0.274414L23.9844 6.40039C24.3099 6.591 24.5799 6.87122 24.7676 7.20996C24.9552 7.54854 25.0545 7.93399 25.0547 8.32617V20.4932L25.0498 20.6396C25.0277 20.9803 24.9308 21.3117 24.7666 21.6074C24.6024 21.9032 24.3755 22.1543 24.1035 22.3398L23.9844 22.415L13.5234 28.543C13.2192 28.7228 12.8765 28.8174 12.5273 28.8174C12.222 28.8174 11.9216 28.745 11.6475 28.6064L11.5312 28.543L1.07031 22.415C0.745423 22.2248 0.475741 21.9453 0.288086 21.6074C0.10046 21.2695 0.000830617 20.8848 0 20.4932V8.3252L0.00488281 8.17871C0.026938 7.83807 0.123916 7.50663 0.288086 7.21094C0.475733 6.87303 0.745442 6.5936 1.07031 6.40332L11.5312 0.274414C11.8354 0.0946573 12.1784 1.08702e-05 12.5273 0ZM2.22949 20.3994L11.4131 25.7744V15.2393L2.22949 9.86035V20.3994ZM19.3486 11.9023V17.4639C19.3486 17.7737 19.2331 18.0727 19.0254 18.2949C18.8173 18.5176 18.5327 18.6455 18.2334 18.6455C17.9341 18.6455 17.6494 18.5175 17.4414 18.2949C17.2338 18.0727 17.1192 17.7736 17.1191 17.4639V13.208L13.6416 15.2441V25.7744L22.8252 20.3945V9.86035L19.3486 11.9023ZM3.30078 7.79492L12.5264 13.2021L16.2334 11.0312L7.00586 5.62305L3.30078 7.79492ZM9.31055 4.27051L18.5381 9.67871L21.7529 7.79395L12.5264 2.38574L9.31055 4.27051Z" fill="white"/>
<path d="M12.5519 13.7107L1.52539 7.51758V20.4896L12.5519 27.1849V13.7107Z" fill="white" fill-opacity="0.5"/>
</svg>
