<svg width="29" height="33" viewBox="0 0 29 33" fill="none" xmlns="http://www.w3.org/2000/svg">
<path d="M14.3018 0C14.6959 7.73537e-05 15.0829 0.107631 15.4268 0.310547H15.4277L27.3906 7.31543C27.759 7.53119 28.0647 7.84865 28.2773 8.23242C28.49 8.61617 28.6024 9.05336 28.6025 9.49805V23.4102C28.6016 23.854 28.4889 24.29 28.2764 24.6729C28.0637 25.0558 27.7584 25.3725 27.3906 25.5879L15.4287 32.5947C15.0844 32.7983 14.6966 32.9052 14.3018 32.9053C13.9068 32.9053 13.5182 32.7984 13.1738 32.5947L1.21191 25.5879C0.844172 25.3725 0.538784 25.0557 0.326172 24.6729C0.11362 24.29 0.000961004 23.854 0 23.4102V9.49609L0.00585938 9.33008C0.0308735 8.94405 0.140207 8.56837 0.326172 8.2334C0.538772 7.85055 0.844201 7.53374 1.21191 7.31836L13.1748 0.310547C13.519 0.107246 13.9071 0 14.3018 0ZM2.50293 23.3164L13.0498 29.4893V17.3887L2.50293 11.2119V23.3164ZM22.0771 13.5732V19.9463C22.0771 20.2948 21.948 20.6313 21.7148 20.8809C21.4812 21.1308 21.1617 21.2734 20.8262 21.2734C20.4907 21.2734 20.1711 21.1308 19.9375 20.8809C19.7043 20.6313 19.5753 20.2948 19.5752 19.9463V15.0391L15.5527 17.3945V29.4893L26.0996 23.3105V11.2119L22.0771 13.5732ZM3.70312 8.88965L14.3008 15.1006L18.5859 12.5898L7.98828 6.37891L3.70312 8.88965ZM10.5762 4.85938L21.1758 11.0713L24.8984 8.88965L14.3008 2.67773L10.5762 4.85938Z" fill="#38A9D7"/>
<path d="M14.3293 15.654L1.7207 8.57227V23.4056L14.3293 31.0615V15.654Z" fill="#38A9D7"/>
</svg>
