<svg width="18" height="18" viewBox="0 0 18 18" fill="none" xmlns="http://www.w3.org/2000/svg">
<path d="M4.5 7L3 12L5.5 14.5L10.5 13L4.5 7Z" fill="#38A9D7" fill-opacity="0.5" stroke="white" stroke-width="0.5" stroke-linecap="round"/>
<path d="M6.58535 4.13805C6.45324 4.00628 6.29006 3.90991 6.11089 3.85784C5.93171 3.80576 5.7423 3.79965 5.56014 3.84008C5.37798 3.8805 5.20894 3.96616 5.06861 4.08914C4.92829 4.21212 4.82119 4.36847 4.75722 4.54375L1.06652 14.6955C1.00589 14.8629 0.986307 15.0424 1.00941 15.2189C1.03252 15.3955 1.09764 15.5639 1.19931 15.7101C1.30097 15.8562 1.43622 15.9759 1.5937 16.0589C1.75118 16.142 1.92629 16.1861 2.10433 16.1875C2.23542 16.1866 2.36534 16.1628 2.48824 16.1172L12.6393 12.4258C12.8146 12.3619 12.971 12.2549 13.0941 12.1146C13.2171 11.9743 13.3029 11.8052 13.3434 11.6231C13.3839 11.4409 13.3778 11.2515 13.3258 11.0723C13.2737 10.893 13.1774 10.7298 13.0457 10.5977L6.58535 4.13805ZM3.32636 11.767L4.67636 8.05516L9.12855 12.5073L5.41605 13.8573L3.32636 11.767ZM9.99621 5.5C10.0068 5.11973 10.0988 4.74616 10.2662 4.40453C10.6389 3.65992 11.342 3.25 12.2462 3.25C12.7173 3.25 13.0196 3.08898 13.206 2.74305C13.3041 2.54951 13.3604 2.3375 13.3712 2.12078C13.3718 1.9716 13.4316 1.82875 13.5375 1.72365C13.6433 1.61856 13.7866 1.55983 13.9358 1.56039C14.085 1.56095 14.2279 1.62075 14.3329 1.72663C14.438 1.83252 14.4968 1.97582 14.4962 2.125C14.4962 3.02922 13.8971 4.375 12.2462 4.375C11.7751 4.375 11.4728 4.53602 11.2864 4.88195C11.1883 5.07549 11.132 5.2875 11.1212 5.50422C11.1209 5.57809 11.1061 5.65118 11.0776 5.71932C11.0491 5.78746 11.0074 5.84931 10.955 5.90135C10.9025 5.95339 10.8404 5.99459 10.772 6.0226C10.7037 6.05061 10.6305 6.06489 10.5566 6.06461C10.4827 6.06433 10.4096 6.04951 10.3415 6.02098C10.2734 5.99246 10.2115 5.95079 10.1595 5.89837C10.1074 5.84594 10.0662 5.78377 10.0382 5.71542C10.0102 5.64707 9.99593 5.57387 9.99621 5.5ZM8.30871 3.25V1.5625C8.30871 1.41332 8.36797 1.27024 8.47346 1.16475C8.57895 1.05926 8.72202 1 8.87121 1C9.02039 1 9.16347 1.05926 9.26896 1.16475C9.37444 1.27024 9.43371 1.41332 9.43371 1.5625V3.25C9.43371 3.39918 9.37444 3.54226 9.26896 3.64775C9.16347 3.75324 9.02039 3.8125 8.87121 3.8125C8.72202 3.8125 8.57895 3.75324 8.47346 3.64775C8.36797 3.54226 8.30871 3.39918 8.30871 3.25ZM15.4567 9.03953C15.5089 9.09179 15.5503 9.15383 15.5785 9.22209C15.6068 9.29036 15.6213 9.36352 15.6213 9.4374C15.6212 9.51127 15.6067 9.58442 15.5784 9.65266C15.5501 9.7209 15.5086 9.7829 15.4563 9.83512C15.4041 9.88733 15.342 9.92874 15.2738 9.95698C15.2055 9.98523 15.1323 9.99975 15.0585 9.99971C14.9846 9.99968 14.9114 9.9851 14.8432 9.95679C14.775 9.92849 14.713 9.88703 14.6607 9.83477L13.5357 8.70977C13.4302 8.60422 13.3709 8.46106 13.3709 8.3118C13.3709 8.16253 13.4302 8.01938 13.5357 7.91383C13.6413 7.80828 13.7844 7.74898 13.9337 7.74898C14.083 7.74898 14.2261 7.80828 14.3317 7.91383L15.4567 9.03953ZM15.7991 6.03367L14.1116 6.59617C13.9701 6.64335 13.8156 6.63237 13.6821 6.56565C13.5487 6.49893 13.4472 6.38193 13.4 6.24039C13.3529 6.09885 13.3638 5.94437 13.4306 5.81093C13.4973 5.67748 13.6143 5.57601 13.7558 5.52883L15.4433 4.96633C15.5849 4.91915 15.7393 4.93013 15.8728 4.99685C16.0062 5.06357 16.1077 5.18057 16.1549 5.32211C16.2021 5.46365 16.1911 5.61813 16.1244 5.75157C16.0576 5.88502 15.9406 5.98649 15.7991 6.03367Z" fill="#38A9D7"/>
</svg>
