<svg width="13" height="15" viewBox="0 0 13 15" fill="none" xmlns="http://www.w3.org/2000/svg">
<g transform="translate(-12 -11.28)">
<path d="M21.097 25.7218C21.097 25.8692 21.0423 26.0105 20.945 26.1146C20.8477 26.2188 20.7158 26.2773 20.5782 26.2773H16.4281C16.2905 26.2773 16.1586 26.2188 16.0613 26.1146C15.964 26.0105 15.9093 25.8692 15.9093 25.7218C15.9093 25.5745 15.964 25.4332 16.0613 25.329C16.1586 25.2249 16.2905 25.1663 16.4281 25.1663H20.5782C20.7158 25.1663 20.8477 25.2249 20.945 25.329C21.0423 25.4332 21.097 25.5745 21.097 25.7218ZM24.9481 14.3561C24.3651 13.1358 23.4896 12.1035 22.4114 11.3647C22.3538 11.3253 22.2895 11.2985 22.2221 11.2858C22.1548 11.2731 22.0858 11.2747 22.0191 11.2907C21.9524 11.3066 21.8893 11.3366 21.8334 11.3787C21.7775 11.4209 21.7299 11.4744 21.6934 11.5363C21.6569 11.5982 21.6322 11.6673 21.6207 11.7394C21.6093 11.8116 21.6112 11.8855 21.6264 11.9568C21.6417 12.0282 21.67 12.0956 21.7096 12.1552C21.7493 12.2148 21.7996 12.2655 21.8576 12.3042C22.7827 12.9344 23.5322 13.8197 24.0273 14.8672C24.0928 14.9938 24.2018 15.0881 24.3311 15.1299C24.4605 15.1718 24.6 15.158 24.72 15.0914C24.8399 15.0248 24.9309 14.9107 24.9735 14.7734C25.0161 14.6361 25.007 14.4864 24.9481 14.3561ZM12.5185 15.1672C12.6136 15.1671 12.7068 15.1391 12.788 15.0862C12.8692 15.0333 12.9352 14.9576 12.979 14.8672C13.4741 13.8197 14.2236 12.9344 15.1487 12.3042C15.2067 12.2655 15.257 12.2148 15.2966 12.1552C15.3363 12.0956 15.3646 12.0282 15.3798 11.9568C15.3951 11.8855 15.397 11.8116 15.3855 11.7394C15.374 11.6673 15.3493 11.5982 15.3129 11.5363C15.2764 11.4744 15.2288 11.4209 15.1729 11.3787C15.117 11.3366 15.0539 11.3066 14.9872 11.2907C14.9205 11.2747 14.8515 11.2731 14.7842 11.2858C14.7168 11.2985 14.6525 11.3253 14.5949 11.3647C13.5167 12.1035 12.6412 13.1358 12.0581 14.3561C12.0172 14.4408 11.9973 14.5353 12.0003 14.6306C12.0033 14.7259 12.0292 14.8187 12.0755 14.9002C12.1217 14.9817 12.1868 15.049 12.2644 15.0958C12.342 15.1425 12.4295 15.1671 12.5185 15.1672ZM24.5863 22.3846C24.6782 22.5534 24.7269 22.7451 24.7276 22.9405C24.7282 23.1358 24.6807 23.3279 24.5899 23.4974C24.4991 23.6668 24.3681 23.8076 24.2103 23.9056C24.0524 24.0035 23.8732 24.0552 23.6908 24.0553H13.3155C13.1332 24.0549 12.9542 24.0031 12.7965 23.905C12.6388 23.807 12.5081 23.6662 12.4174 23.4968C12.3267 23.3274 12.2793 23.1354 12.28 22.9401C12.2807 22.7449 12.3294 22.5533 12.4213 22.3846C13.0055 21.3048 13.3155 19.7696 13.3155 17.9447C13.3155 16.4714 13.8621 15.0584 14.8349 14.0167C15.8078 12.9749 17.1273 12.3896 18.5031 12.3896C19.879 12.3896 21.1985 12.9749 22.1714 14.0167C23.1442 15.0584 23.6908 16.4714 23.6908 17.9447C23.6908 19.7689 24.0008 21.3041 24.5863 22.3846ZM23.6908 22.9443C23.0008 21.6756 22.6533 19.9938 22.6533 17.9447C22.6533 16.7661 22.216 15.6357 21.4377 14.8023C20.6594 13.9689 19.6038 13.5006 18.5031 13.5006C17.4025 13.5006 16.3469 13.9689 15.5686 14.8023C14.7903 15.6357 14.353 16.7661 14.353 17.9447C14.353 19.9945 14.0042 21.6763 13.3155 22.9443H23.6908Z" fill="#38A9D7" stroke="#38A9D7" stroke-width="0.4" stroke-linejoin="bevel"/>
</g>
</svg>
