<svg width="18" height="18" viewBox="0 0 18 18" fill="none" xmlns="http://www.w3.org/2000/svg">
<path d="M13.9557 5.30844H4.03257C3.79428 5.29872 3.56057 5.37584 3.37486 5.52546C3.18915 5.67509 3.06408 5.88705 3.02288 6.12195L1.61663 15.9059C1.60935 16.0402 1.63055 16.1746 1.67883 16.3001C1.72712 16.4257 1.80141 16.5396 1.89682 16.6344C1.99223 16.7292 2.10661 16.8028 2.23245 16.8502C2.3583 16.8978 2.49276 16.9181 2.62703 16.91H15.3613C15.4955 16.9182 15.63 16.8978 15.7558 16.8503C15.8816 16.8028 15.9959 16.7292 16.0913 16.6344C16.1867 16.5395 16.2609 16.4256 16.3091 16.3C16.3573 16.1745 16.3784 16.0402 16.371 15.9059L14.9647 6.12195C14.9236 5.88717 14.7986 5.67531 14.613 5.5257C14.4275 5.37609 14.194 5.29889 13.9557 5.30844Z" fill="#38A9D7" fill-opacity="0.5" stroke="#38A9D7" stroke-linecap="round" stroke-linejoin="round"/>
<path d="M12 5C11.8845 4.39666 11.1376 2.09158 10.6648 1.69943C10.1919 1.30728 9.59741 1.09177 8.98309 1.08984C8.37186 1.09252 7.78039 1.30677 7.3092 1.69618C6.83802 2.08558 5.61777 4.40019 5.5 5" stroke="#38A9D7" stroke-linecap="round" stroke-linejoin="round"/>
<path d="M10.8651 10.0547L8.39013 13.3545L6.88477 11.8498" stroke="#38A9D7" stroke-linecap="round" stroke-linejoin="round"/>
</svg>
