<svg width="19" height="16" viewBox="0 0 19 16" fill="none" xmlns="http://www.w3.org/2000/svg">
<path d="M17.4648 14.4672H16.2793V6.02677C16.2793 5.70698 16.1523 5.40029 15.9262 5.17416C15.7 4.94803 15.3933 4.82099 15.0736 4.82099H11.7577C11.6777 4.82099 11.601 4.85275 11.5445 4.90928C11.488 4.96582 11.4562 5.04249 11.4562 5.12244V14.4672H10.2504V1.23456C10.2524 1.04674 10.2117 0.860935 10.1313 0.691201C10.0508 0.521467 9.93283 0.372255 9.78622 0.254861C9.58636 0.0990419 9.34249 0.0101531 9.08924 0.000818577C8.83599 -0.00851591 8.58624 0.0621785 8.37546 0.202862L2.34656 4.2181C2.18118 4.32845 2.04564 4.47798 1.95202 4.65338C1.85841 4.82878 1.80962 5.0246 1.80999 5.22342V14.4672H0.624561C0.468764 14.4649 0.317875 14.5217 0.202248 14.6261C0.0866199 14.7306 0.0148319 14.8749 0.00132466 15.0302C-0.00415103 15.1126 0.00738783 15.1953 0.0352244 15.2732C0.0630611 15.351 0.106601 15.4223 0.16314 15.4825C0.219678 15.5428 0.288008 15.5908 0.363885 15.6236C0.439762 15.6564 0.521565 15.6732 0.604214 15.673H17.4851C17.5678 15.6732 17.6496 15.6564 17.7254 15.6236C17.8013 15.5908 17.8696 15.5428 17.9262 15.4825C17.9827 15.4223 18.0263 15.351 18.0541 15.2732C18.0819 15.1953 18.0935 15.1126 18.088 15.0302C18.0745 14.8749 18.0027 14.7306 17.8871 14.6261C17.7715 14.5217 17.6206 14.4649 17.4648 14.4672ZM5.12588 12.6586C5.12606 12.7412 5.10925 12.823 5.07649 12.8989C5.04372 12.9748 4.99571 13.0431 4.93542 13.0996C4.87514 13.1562 4.80387 13.1997 4.72605 13.2275C4.64823 13.2554 4.56552 13.2669 4.48305 13.2614C4.32769 13.2479 4.18323 13.176 4.07877 13.0602C3.97431 12.9445 3.91761 12.7934 3.9201 12.6375V11.4731C3.91798 11.3174 3.97482 11.1666 4.07923 11.051C4.18364 10.9354 4.32789 10.8636 4.48305 10.8499C4.56552 10.8444 4.64823 10.8559 4.72605 10.8838C4.80387 10.9116 4.87514 10.9552 4.93542 11.0117C4.99571 11.0682 5.04372 11.1366 5.07649 11.2124C5.10925 11.2883 5.12606 11.3701 5.12588 11.4528V12.6586ZM5.12588 8.43833C5.12606 8.52098 5.10925 8.60278 5.07649 8.67866C5.04372 8.75453 4.99571 8.82287 4.93542 8.8794C4.87514 8.93594 4.80387 8.97948 4.72605 9.00732C4.64823 9.03516 4.56552 9.04669 4.48305 9.04122C4.32776 9.02753 4.1834 8.95558 4.07897 8.83983C3.97455 8.72408 3.91779 8.5731 3.9201 8.41723V7.2529C3.91798 7.09715 3.97482 6.94636 4.07923 6.83077C4.18364 6.71518 4.32789 6.64334 4.48305 6.62966C4.56552 6.62419 4.64823 6.63572 4.72605 6.66356C4.80387 6.6914 4.87514 6.73494 4.93542 6.79148C4.99571 6.84801 5.04372 6.91634 5.07649 6.99222C5.10925 7.0681 5.12606 7.1499 5.12588 7.23255V8.43833ZM8.14033 12.6586C8.14051 12.7412 8.1237 12.823 8.09093 12.8989C8.05817 12.9748 8.01015 13.0431 7.94987 13.0996C7.88958 13.1562 7.81832 13.1997 7.7405 13.2275C7.66268 13.2554 7.57997 13.2669 7.4975 13.2614C7.3424 13.2479 7.19816 13.1763 7.09373 13.0608C6.98931 12.9453 6.93244 12.7946 6.93455 12.639V11.4731C6.93262 11.3175 6.98955 11.1669 7.09394 11.0515C7.19833 10.936 7.34247 10.8643 7.4975 10.8506C7.57997 10.8452 7.66268 10.8567 7.7405 10.8845C7.81832 10.9124 7.88958 10.9559 7.94987 11.0125C8.01015 11.069 8.05817 11.1373 8.09093 11.2132C8.1237 11.2891 8.14051 11.3709 8.14033 11.4535V12.6586ZM8.14033 8.43833C8.14051 8.52098 8.1237 8.60278 8.09093 8.67866C8.05817 8.75453 8.01015 8.82287 7.94987 8.8794C7.88958 8.93594 7.81832 8.97948 7.7405 9.00732C7.66268 9.03516 7.57997 9.04669 7.4975 9.04122C7.34247 9.02755 7.19833 8.95582 7.09394 8.84039C6.98955 8.72496 6.93262 8.57435 6.93455 8.41873V7.2529C6.93262 7.09728 6.98955 6.94667 7.09394 6.83125C7.19833 6.71582 7.34247 6.64408 7.4975 6.63041C7.57997 6.62494 7.66268 6.63648 7.7405 6.66431C7.81832 6.69215 7.88958 6.73569 7.94987 6.79223C8.01015 6.84877 8.05817 6.9171 8.09093 6.99297C8.1237 7.06885 8.14051 7.15066 8.14033 7.2333V8.43833Z" fill="#38A9D7"/>
</svg>
