<svg width="18" height="18" viewBox="0 0 18 18" fill="none" xmlns="http://www.w3.org/2000/svg">
<path d="M12.375 9.5625H14.0302C13.901 10.7029 13.3888 11.7658 12.5773 12.5773C11.7658 13.3888 10.7029 13.901 9.5625 14.0302V12.375C9.5625 12.2258 9.50324 12.0827 9.39775 11.9773C9.29226 11.8718 9.14919 11.8125 9 11.8125C8.85082 11.8125 8.70775 11.8718 8.60226 11.9773C8.49677 12.0827 8.4375 12.2258 8.4375 12.375V14.0302C7.2971 13.901 6.23424 13.3888 5.4227 12.5773C4.61116 11.7658 4.09896 10.7029 3.96985 9.5625H5.625C5.77419 9.5625 5.91726 9.50324 6.02275 9.39775C6.12824 9.29226 6.1875 9.14918 6.1875 9C6.1875 8.85082 6.12824 8.70774 6.02275 8.60225C5.91726 8.49676 5.77419 8.4375 5.625 8.4375H3.96985C4.09896 7.2971 4.61116 6.23423 5.4227 5.42269C6.23424 4.61116 7.2971 4.09896 8.4375 3.96984V5.625C8.4375 5.77418 8.49677 5.91726 8.60226 6.02275C8.70775 6.12824 8.85082 6.1875 9 6.1875C9.14919 6.1875 9.29226 6.12824 9.39775 6.02275C9.50324 5.91726 9.5625 5.77418 9.5625 5.625V3.96984C10.7029 4.09896 11.7658 4.61116 12.5773 5.42269C13.3888 6.23423 13.901 7.2971 14.0302 8.4375H12.375C12.2258 8.4375 12.0827 8.49676 11.9773 8.60225C11.8718 8.70774 11.8125 8.85082 11.8125 9C11.8125 9.14918 11.8718 9.29226 11.9773 9.39775C12.0827 9.50324 12.2258 9.5625 12.375 9.5625ZM16.3125 9C16.3125 10.4463 15.8836 11.8601 15.0801 13.0626C14.2766 14.2651 13.1346 15.2024 11.7984 15.7559C10.4622 16.3093 8.99189 16.4541 7.57341 16.172C6.15492 15.8898 4.85196 15.1934 3.82928 14.1707C2.80661 13.148 2.11017 11.8451 1.82801 10.4266C1.54586 9.00811 1.69067 7.53781 2.24413 6.20163C2.7976 4.86544 3.73486 3.72339 4.9374 2.91988C6.13993 2.11637 7.55373 1.6875 9 1.6875C10.9388 1.68955 12.7975 2.46063 14.1685 3.83154C15.5394 5.20246 16.3105 7.06123 16.3125 9ZM15.1875 9C15.1875 7.77623 14.8246 6.57994 14.1447 5.56241C13.4648 4.54488 12.4985 3.75181 11.3679 3.2835C10.2372 2.81518 8.99314 2.69264 7.79288 2.93139C6.59262 3.17014 5.49012 3.75944 4.62478 4.62478C3.75944 5.49011 3.17014 6.59262 2.93139 7.79288C2.69265 8.99314 2.81518 10.2372 3.2835 11.3679C3.75182 12.4985 4.54488 13.4648 5.56241 14.1447C6.57994 14.8246 7.77623 15.1875 9 15.1875C10.6405 15.1856 12.2132 14.5331 13.3732 13.3732C14.5331 12.2132 15.1856 10.6405 15.1875 9Z" fill="#38A9D7"/>
</svg>
