<svg width="18" height="18" viewBox="0 0 18 18" fill="none" xmlns="http://www.w3.org/2000/svg">
<path fill-rule="evenodd" clip-rule="evenodd" d="M7.31738 0C7.52972 5.04628e-05 7.73895 0.0545315 7.9248 0.157227L13.9766 3.46875C14.1753 3.57757 14.3414 3.7377 14.457 3.93262C14.5726 4.1276 14.6337 4.35047 14.6338 4.57715V11.1553C14.6332 11.3814 14.5716 11.6035 14.4561 11.7979C14.3405 11.9922 14.1749 12.1522 13.9766 12.2607L7.92383 15.5742C7.73816 15.6766 7.52943 15.7304 7.31738 15.7305C7.10498 15.7305 6.89588 15.676 6.70996 15.5732L0.658203 12.2607C0.459708 12.1521 0.293356 11.9923 0.177734 11.7979C0.0622134 11.6035 0.00062326 11.3814 0 11.1553V4.57617L0.0117188 4.40723C0.0345909 4.24025 0.0910666 4.07848 0.177734 3.93262C0.293346 3.73818 0.459757 3.57832 0.658203 3.46973L6.70996 0.157227L6.85352 0.0888672C7.00058 0.0304628 7.15819 0 7.31738 0ZM1.42773 11.0576L6.60352 13.8877V8.36035L1.42773 5.52734V11.0576ZM11.332 6.55566V9.5166C11.332 9.70587 11.2569 9.88765 11.123 10.0215C10.9892 10.1553 10.8074 10.2305 10.6182 10.2305C10.429 10.2304 10.2471 10.1552 10.1133 10.0215C9.97962 9.88768 9.90434 9.70574 9.9043 9.5166V7.33789L8.03125 8.36328V13.8877L13.2061 11.0547V5.52734L11.332 6.55566ZM2.13086 4.28906L7.31641 7.12793L9.30762 6.03809L4.12207 3.19922L2.13086 4.28906ZM5.60938 2.38379L10.7949 5.22363L12.5029 4.28906L7.31641 1.44922L5.60938 2.38379Z" fill="#38A9D7"/>
<rect x="8" y="8" width="10" height="10" rx="5" fill="#38A9D7"/>
<path d="M13 10V13.3075L14.5 14" stroke="white" stroke-linecap="round"/>
</svg>
