<svg width="16" height="16" viewBox="0 0 16 16" fill="none" xmlns="http://www.w3.org/2000/svg">
<path d="M15.4294 7.93129C15.4306 7.77266 15.3986 7.61554 15.3356 7.46994C15.2726 7.32434 15.18 7.19344 15.0637 7.08557L8.00086 0.571289L0.938006 7.08557C0.821692 7.19344 0.729107 7.32434 0.666143 7.46994C0.60318 7.61554 0.571219 7.77266 0.572292 7.93129V14.2856C0.572292 14.5887 0.6927 14.8794 0.907027 15.0937C1.12135 15.308 1.41205 15.4284 1.71515 15.4284H14.2866C14.5896 15.4284 14.8804 15.308 15.0947 15.0937C15.3091 14.8794 15.4294 14.5887 15.4294 14.2856V7.93129Z" fill="#97CFE6" stroke="#38A9D7" stroke-linecap="round" stroke-linejoin="round"/>
<path d="M8.28571 11.4297H11.7131C11.7131 11.4297 11.9989 11.4297 11.9989 11.7154V15.1428C11.9989 15.1428 11.9989 15.4285 11.7131 15.4285H8.28571C8.28571 15.4285 8 15.4285 8 15.1428V11.7154C8 11.7154 8 11.4297 8.28571 11.4297Z" stroke="#38A9D7" stroke-linecap="round" stroke-linejoin="round"/>
<path d="M6.28571 7.42969H9.71314C9.71314 7.42969 9.99886 7.42969 9.99886 7.7154V11.1428C9.99886 11.1428 9.99886 11.4285 9.71314 11.4285H6.28571C6.28571 11.4285 6 11.4285 6 11.1428V7.7154C6 7.7154 6 7.42969 6.28571 7.42969Z" stroke="#38A9D7" stroke-linecap="round" stroke-linejoin="round"/>
<path d="M4.28767 11.4297H7.7151C7.7151 11.4297 8.00081 11.4297 8.00081 11.7154V15.1428C8.00081 15.1428 8.00081 15.4285 7.7151 15.4285H4.28767C4.28767 15.4285 4.00195 15.4285 4.00195 15.1428V11.7154C4.00195 11.7154 4.00195 11.4297 4.28767 11.4297Z" stroke="#38A9D7" stroke-linecap="round" stroke-linejoin="round"/>
</svg>
