<svg width="55" height="55" viewBox="0 0 55 55" fill="none" xmlns="http://www.w3.org/2000/svg">
<path d="M42.7285 22.3156L39.2681 25.7416C38.5691 33.7645 31.7352 40 23.5565 40C21.8761 40 20.4908 39.7365 19.4388 39.2163C18.5905 38.7958 18.2433 38.3455 18.1565 38.2171C18.0791 38.1022 18.0289 37.9715 18.0097 37.8347C17.9906 37.6978 18.0028 37.5585 18.0457 37.4271C18.0885 37.2956 18.1608 37.1755 18.2572 37.0756C18.3535 36.9757 18.4714 36.8986 18.6021 36.8502C18.6321 36.8387 21.4074 35.7834 23.17 33.7748C22.1925 32.9792 21.3392 32.0448 20.6378 31.002C19.2027 28.8926 17.5964 25.2283 18.0917 19.7525C18.1074 19.5785 18.173 19.4125 18.2807 19.2742C18.3885 19.1359 18.5339 19.0309 18.6999 18.9717C18.8659 18.9124 19.0455 18.9014 19.2176 18.9399C19.3898 18.9783 19.5472 19.0647 19.6714 19.1887C19.7119 19.2288 23.5229 22.9813 28.1823 24.1982V23.5004C28.1805 22.7687 28.3266 22.044 28.612 21.369C28.8974 20.6941 29.3164 20.0825 29.8441 19.5703C30.3567 19.0635 30.9666 18.6635 31.6379 18.3939C32.3091 18.1243 33.0281 17.9906 33.7524 18.0005C34.724 18.01 35.6766 18.2682 36.5176 18.7501C37.3586 19.232 38.0594 19.9211 38.5517 20.7505H42.0734C42.2566 20.7503 42.4358 20.804 42.5882 20.9047C42.7406 21.0054 42.8593 21.1486 42.9295 21.3162C42.9996 21.4838 43.018 21.6682 42.9822 21.8461C42.9464 22.024 42.8581 22.1874 42.7285 22.3156Z" fill="white"/>
</svg>
