<svg width="16" height="16" viewBox="0 0 16 16" fill="none" xmlns="http://www.w3.org/2000/svg">
<path d="M5.99975 2.5C3.59975 2.5 0.999534 8 1.99885 9.5L5.99975 6.5V2.5Z" fill="#38A9D7" fill-opacity="0.5" stroke="white" stroke-width="0.5" stroke-linecap="round"/>
<path d="M6.25009 7.27688C6.32612 7.23298 6.38925 7.16985 6.43313 7.09381C6.47702 7.01778 6.50011 6.93154 6.50009 6.84375V2.34375C6.49965 2.26403 6.48015 2.18558 6.44322 2.11493C6.40629 2.04428 6.35301 1.98349 6.28781 1.93762C6.22261 1.89175 6.14739 1.86213 6.06842 1.85124C5.98945 1.84035 5.90902 1.84849 5.83384 1.875C4.37445 2.39151 3.14717 3.41165 2.3726 4.75204C1.59804 6.09244 1.327 7.66516 1.60822 9.1875C1.62279 9.26622 1.65606 9.34029 1.70522 9.40349C1.75438 9.46668 1.818 9.51714 1.89072 9.55063C1.95625 9.58127 2.02775 9.59706 2.10009 9.59688C2.18785 9.59691 2.27407 9.57385 2.35009 9.53L6.25009 7.27688ZM5.50009 3.10125V6.555L2.50759 8.28188C2.50009 8.1875 2.50009 8.0925 2.50009 8C2.50098 6.98648 2.78152 5.99285 3.31084 5.12853C3.84015 4.2642 4.59771 3.5627 5.50009 3.10125ZM14.5001 8C14.5006 9.42696 14.0315 10.8144 13.1652 11.9483C12.2989 13.0822 11.0836 13.8996 9.70668 14.2742C8.32979 14.6489 6.86787 14.56 5.54648 14.0214C4.2251 13.4827 3.11768 12.5242 2.39509 11.2938C2.36141 11.2369 2.33932 11.174 2.33011 11.1085C2.3209 11.0431 2.32474 10.9765 2.34142 10.9126C2.3581 10.8487 2.38728 10.7887 2.42728 10.7361C2.46728 10.6835 2.51731 10.6394 2.57447 10.6063L7.50009 7.73938V2C7.50009 1.86739 7.55277 1.74021 7.64654 1.64645C7.74031 1.55268 7.86748 1.5 8.00009 1.5C9.13439 1.50058 10.2488 1.79783 11.2327 2.36225C12.2166 2.92667 13.0358 3.73863 13.6088 4.7175C13.6157 4.7275 13.622 4.7375 13.6282 4.74813C13.6345 4.75875 13.6407 4.77125 13.6463 4.7825C14.2072 5.76198 14.5015 6.87133 14.5001 8Z" fill="#38A9D7"/>
</svg>
