<svg width="20" height="20" viewBox="0 0 20 20" fill="none" xmlns="http://www.w3.org/2000/svg">
<path d="M10 12.5C11.3807 12.5 12.5 11.3807 12.5 10C12.5 8.61929 11.3807 7.5 10 7.5C8.61929 7.5 7.5 8.61929 7.5 10C7.5 11.3807 8.61929 12.5 10 12.5Z" fill="#38A9D7" fill-opacity="0.4" stroke="#38A9D7" stroke-width="1.1" stroke-linecap="round" stroke-linejoin="round"/>
<path d="M16.1458 11.2625C16.1902 10.845 16.2083 10.4241 16.2083 10C16.2083 9.57583 16.1902 9.155 16.1458 8.7375L17.9375 7.65C18.0938 7.55583 18.1458 7.35083 18.0521 7.1875L16.3646 4.2625C16.2708 4.09917 16.0729 4.03833 15.9062 4.10417L13.8229 4.94583C13.3854 4.61333 12.9167 4.335 12.4062 4.12917L12.0833 1.89167C12.0521 1.70667 11.8854 1.56667 11.6875 1.56667H8.3125C8.11458 1.56667 7.94792 1.70667 7.91667 1.89167L7.59375 4.12917C7.08333 4.335 6.61458 4.61333 6.17708 4.94583L4.09375 4.10417C3.92708 4.03833 3.72917 4.09917 3.63542 4.2625L1.94792 7.1875C1.85417 7.35083 1.90625 7.55583 2.0625 7.65L3.85417 8.7375C3.80979 9.155 3.79167 9.57583 3.79167 10C3.79167 10.4241 3.80979 10.845 3.85417 11.2625L2.0625 12.35C1.90625 12.4442 1.85417 12.6492 1.94792 12.8125L3.63542 15.7375C3.72917 15.9008 3.92708 15.9617 4.09375 15.8958L6.17708 15.0542C6.61458 15.3867 7.08333 15.665 7.59375 15.8708L7.91667 18.1083C7.94792 18.2933 8.11458 18.4333 8.3125 18.4333H11.6875C11.8854 18.4333 12.0521 18.2933 12.0833 18.1083L12.4062 15.8708C12.9167 15.665 13.3854 15.3867 13.8229 15.0542L15.9062 15.8958C16.0729 15.9617 16.2708 15.9008 16.3646 15.7375L18.0521 12.8125C18.1458 12.6492 18.0938 12.4442 17.9375 12.35L16.1458 11.2625Z" fill="#38A9D7" fill-opacity="0.4" stroke="#38A9D7" stroke-width="1.1" stroke-linecap="round" stroke-linejoin="round"/>
</svg>
