<svg width="14" height="14" viewBox="0 0 14 14" fill="none" xmlns="http://www.w3.org/2000/svg">
<g transform="translate(-12 -11.28)">
<path d="M18.6682 11.4938C18.6988 11.4288 18.7462 11.3741 18.805 11.3359C18.8637 11.2976 18.9315 11.2773 19.0006 11.2773C19.0698 11.2773 19.1375 11.2976 19.1963 11.3359C19.255 11.3741 19.3024 11.4288 19.3331 11.4938L20.95 14.9285C21.0565 15.1545 21.2137 15.3501 21.4081 15.4984C21.6026 15.6467 21.8285 15.7434 22.0663 15.78L25.6822 16.3349C25.7507 16.3453 25.8151 16.3756 25.8681 16.4224C25.921 16.4692 25.9604 16.5306 25.9818 16.5996C26.0032 16.6687 26.0058 16.7426 25.9892 16.8131C25.9726 16.8836 25.9376 16.9478 25.888 16.9985L23.273 19.669C23.1006 19.8453 22.9716 20.0628 22.8971 20.303C22.8226 20.5431 22.8048 20.7986 22.8454 21.0476L23.4627 24.8206C23.4748 24.8925 23.4674 24.9664 23.4414 25.034C23.4153 25.1016 23.3717 25.1602 23.3154 25.2031C23.2592 25.2459 23.1925 25.2713 23.1232 25.2764C23.0538 25.2815 22.9845 25.266 22.9231 25.2317L19.6908 23.4494C19.4778 23.3321 19.2408 23.2709 19.0003 23.2709C18.7597 23.2709 18.5228 23.3321 18.3098 23.4494L15.0782 25.2317C15.0168 25.2658 14.9476 25.2811 14.8783 25.2759C14.8091 25.2708 14.7426 25.2453 14.6864 25.2025C14.6303 25.1597 14.5867 25.1012 14.5607 25.0337C14.5347 24.9662 14.5272 24.8924 14.5392 24.8206L15.1559 21.0483C15.1966 20.7993 15.179 20.5436 15.1045 20.3033C15.03 20.063 14.9008 19.8453 14.7282 19.669L12.1132 16.9992C12.0633 16.9486 12.0279 16.8843 12.011 16.8136C11.9942 16.7429 11.9967 16.6686 12.0181 16.5993C12.0396 16.53 12.0791 16.4684 12.1323 16.4215C12.1855 16.3747 12.2502 16.3444 12.319 16.3342L15.9342 15.78C16.1724 15.7436 16.3985 15.6472 16.5933 15.4988C16.788 15.3505 16.9454 15.1548 17.052 14.9285L18.6682 11.4938Z" fill="#38A9D7" fill-opacity="0.5" stroke="#38A9D7" stroke-linecap="round" stroke-linejoin="round"/>
</g>
</svg>
