<svg width="95" height="102" viewBox="0 0 95 102" fill="none" xmlns="http://www.w3.org/2000/svg">
<path d="M65.8682 1.30964C67.4214 0.997402 69.0054 1.18715 70.4033 1.85749C71.8013 2.5281 72.9402 3.64486 73.6689 5.05183C74.3517 6.37009 74.6444 7.8829 74.5205 9.40925L74.4902 9.71589L74.4892 9.71882L70.5742 41.2686L90.9141 63.17L90.916 63.1719C91.9712 64.3246 92.6401 65.8075 92.8398 67.4151C93.0393 69.0222 92.7605 70.6817 92.0459 72.1719C91.3312 73.6622 90.2112 74.918 88.833 75.7686C87.4544 76.6193 85.8797 77.0261 84.3203 76.9249H84.3174L54.5098 74.7735L32.3525 97.5762L32.3506 97.5782C31.1999 98.7477 29.7519 99.546 28.1992 99.8585C26.6459 100.171 25.062 99.9819 23.6641 99.3116C22.266 98.641 21.1272 97.5233 20.3984 96.1163C19.6702 94.7099 19.3864 93.0816 19.5781 91.4522L19.5791 91.4493L23.4912 59.9024L3.15429 37.9991L3.15136 37.9952C2.09649 36.8426 1.42822 35.3613 1.22851 33.754C1.02901 32.1467 1.30677 30.4865 2.02148 28.9962C2.73632 27.5059 3.85708 26.25 5.23534 25.3995C6.61382 24.5491 8.1879 24.142 9.74706 24.2432L9.75097 24.2442L39.5615 26.3946L61.7158 3.59187L61.7178 3.58991C62.8684 2.4206 64.3156 1.62204 65.8682 1.30964Z" fill="url(#paint0_linear_40_388)"/>
<defs>
<linearGradient id="paint0_linear_40_388" x1="99.8124" y1="19.3456" x2="-34.4566" y2="82.6517" gradientUnits="userSpaceOnUse">
<stop stop-color="#50A668"/>
<stop stop-color="#98E1FF"/>
<stop offset="0.4" stop-color="#3BB1E1"/>
<stop offset="0.788462" stop-color="#E8F8FF" stop-opacity="0.46"/>
<stop offset="1" stop-color="white"/>
</linearGradient>
</defs>
</svg>
