<svg width="13" height="15" viewBox="0 0 13 15" fill="none" xmlns="http://www.w3.org/2000/svg">
<path d="M4.12515 11.7016L2.28442 13.0917C2.21812 13.1448 2.13939 13.1801 2.05566 13.1943C1.97193 13.2085 1.88595 13.2012 1.80583 13.173C1.72572 13.1448 1.65411 13.0967 1.59776 13.0331C1.5414 12.9696 1.50217 12.8927 1.48375 12.8098L0.711209 9.33271C0.694561 9.25806 0.695258 9.18059 0.713245 9.10626C0.731233 9.03193 0.766032 8.96271 0.814965 8.90393L2.70945 6.63318C2.63694 8.09201 2.99321 9.79086 4.12515 11.7016ZM11.5843 8.90393L9.68985 6.63318C9.76548 8.09201 9.40608 9.79086 8.27414 11.7016L10.1149 13.0917C10.1812 13.1448 10.2599 13.1801 10.3436 13.1943C10.4274 13.2085 10.5133 13.2012 10.5935 13.173C10.6736 13.1448 10.7452 13.0967 10.8015 13.0331C10.8579 12.9696 10.8971 12.8927 10.9155 12.8098L11.6881 9.33271C11.7047 9.25806 11.704 9.18059 11.686 9.10626C11.6681 9.03193 11.6333 8.96271 11.5843 8.90393Z" fill="#37A3D0"/>
<path fill-rule="evenodd" clip-rule="evenodd" d="M7.19987 13.002C7.38539 13.0021 7.5638 13.0758 7.69499 13.207C7.82604 13.3383 7.90007 13.5167 7.90007 13.7021C7.89996 13.8874 7.82589 14.0651 7.69499 14.1963C7.5638 14.3275 7.38539 14.4013 7.19987 14.4014H5.19987C5.01431 14.4014 4.83602 14.3274 4.70476 14.1963C4.57373 14.0651 4.49978 13.8875 4.49968 13.7021C4.49968 13.5166 4.57358 13.3383 4.70476 13.207C4.83602 13.0759 5.01431 13.002 5.19987 13.002H7.19987ZM6.19987 0C6.46584 8.99134e-05 6.72498 0.0890407 6.93522 0.251953H6.93425C7.5316 0.713759 9.00865 2.00817 9.83366 4.07617L9.94206 4.35938C10.1737 5.00448 10.3188 5.67768 10.3766 6.36133L12.1227 8.45605L12.2038 8.56641C12.2785 8.68097 12.3335 8.80782 12.3659 8.94141C12.4089 9.11924 12.4109 9.30467 12.3717 9.4834V9.48438L11.5993 12.9609C11.5554 13.1588 11.4618 13.3431 11.3278 13.4951C11.1936 13.6472 11.0217 13.7628 10.8307 13.8311C10.6398 13.8992 10.4341 13.9183 10.2341 13.8857C10.0341 13.8531 9.84555 13.7697 9.6862 13.6445V13.6436L8.03874 12.4014H4.36198L2.71061 13.6475L2.70964 13.6465C2.55106 13.7702 2.36423 13.8532 2.16569 13.8857C1.96562 13.9184 1.75996 13.8991 1.56901 13.8311C1.37796 13.7628 1.20622 13.6472 1.07194 13.4951C0.937821 13.343 0.844414 13.1589 0.800458 12.9609L0.0279976 9.48438V9.4834C-0.0112098 9.30462 -0.00922126 9.1193 0.0338569 8.94141C0.0769704 8.76344 0.160269 8.59713 0.277021 8.45605L2.02214 6.36133C2.0885 5.57685 2.27168 4.8066 2.56608 4.07617L2.72819 3.69727C3.57228 1.84941 4.90357 0.683964 5.4655 0.250977C5.67567 0.0884696 5.93418 0 6.19987 0ZM1.41569 9.27539L2.10026 12.3545L3.2194 11.5088C2.66667 10.472 2.29739 9.44664 2.11882 8.43164L1.41569 9.27539ZM10.28 8.43164C10.1022 9.44503 9.73367 10.4702 9.18132 11.5088L10.2995 12.3525L10.9831 9.27539L10.28 8.43164ZM6.19987 1.45703C5.69982 1.86455 4.51891 2.95637 3.86491 4.5957C3.07177 6.58635 3.28653 8.73399 4.53386 11.002H7.86589C9.11311 8.7341 9.32809 6.58621 8.53386 4.5957C7.88014 2.95695 6.69952 1.86507 6.19987 1.45703ZM6.38542 5.01953C6.56945 5.05626 6.73903 5.14661 6.87175 5.2793C7.00442 5.41205 7.09483 5.58156 7.13151 5.76562C7.16811 5.94969 7.1495 6.14103 7.0778 6.31445C7.00594 6.48795 6.88332 6.63683 6.72722 6.74121C6.57116 6.84539 6.38751 6.90129 6.19987 6.90137C5.948 6.90137 5.70615 6.80109 5.528 6.62305C5.34987 6.44489 5.24968 6.20311 5.24968 5.95117C5.2497 5.76343 5.30559 5.57996 5.40983 5.42383C5.51422 5.26768 5.66306 5.14512 5.83659 5.07324C6.01 5.00158 6.20138 4.98292 6.38542 5.01953Z" fill="#37A3D0"/>
</svg>
