<svg width="13" height="9" viewBox="0 0 13 9" fill="none" xmlns="http://www.w3.org/2000/svg">
<path opacity="0.2" d="M10.0573 4.48587C10.0573 4.94052 10.2379 5.37656 10.5594 5.69805C10.8809 6.01954 11.3169 6.20015 11.7716 6.20015V7.91444C11.7716 8.0281 11.7264 8.13711 11.646 8.21748C11.5657 8.29786 11.4566 8.34301 11.343 8.34301H4.48584V0.628723H11.343C11.4566 0.628723 11.5657 0.673876 11.646 0.754249C11.7264 0.834622 11.7716 0.94363 11.7716 1.05729V2.77158C11.3169 2.77158 10.8809 2.95219 10.5594 3.27368C10.2379 3.59517 10.0573 4.03121 10.0573 4.48587Z" fill="#A1A1A1"/>
<path d="M11.3428 0C11.6231 0 11.8926 0.111318 12.0908 0.30957C12.2891 0.507823 12.4004 0.777245 12.4004 1.05762V2.77148C12.4004 2.93819 12.3337 3.09794 12.2158 3.21582C12.0979 3.3337 11.9382 3.40039 11.7715 3.40039C11.4837 3.40043 11.2075 3.51433 11.0039 3.71777C10.8003 3.92138 10.6855 4.19838 10.6855 4.48633C10.6857 4.77413 10.8004 5.05039 11.0039 5.25391C11.2075 5.4574 11.4837 5.57125 11.7715 5.57129C11.9382 5.57129 12.0979 5.63802 12.2158 5.75586C12.3337 5.87374 12.4004 6.03349 12.4004 6.2002V7.91406C12.4004 8.1944 12.289 8.46386 12.0908 8.66211C11.8926 8.86036 11.6231 8.97168 11.3428 8.97168H1.05762C0.777245 8.97168 0.507823 8.86036 0.30957 8.66211C0.111361 8.46386 0 8.1944 0 7.91406V6.2002C0 6.03349 0.0666902 5.87374 0.18457 5.75586C0.302444 5.63802 0.462232 5.57129 0.628906 5.57129C0.91674 5.57125 1.19292 5.4574 1.39648 5.25391C1.6 5.05039 1.71473 4.77413 1.71484 4.48633C1.71484 4.19838 1.6001 3.92138 1.39648 3.71777C1.19293 3.51433 0.916707 3.40043 0.628906 3.40039C0.462199 3.40039 0.30245 3.3337 0.18457 3.21582C0.0666903 3.09794 0 2.93819 0 2.77148V1.05762C0 0.777246 0.111318 0.507823 0.30957 0.30957C0.507823 0.111318 0.777246 0 1.05762 0H11.3428ZM1.25781 2.22949C1.72261 2.35862 2.13832 2.62734 2.44531 3.00293C2.78732 3.42137 2.97363 3.9459 2.97363 4.48633C2.97354 5.02657 2.78719 5.55043 2.44531 5.96875C2.13839 6.34426 1.72249 6.61206 1.25781 6.74121V7.71484H3.85742V1.25781H1.25781V2.22949ZM5.11426 7.71484H11.1426V6.74121C10.6779 6.61205 10.262 6.34426 9.95508 5.96875C9.6132 5.55043 9.42685 5.02657 9.42676 4.48633C9.42676 3.9459 9.61307 3.42137 9.95508 3.00293C10.2621 2.62734 10.6778 2.35862 11.1426 2.22949V1.25781H5.11426V7.71484Z" fill="#A1A1A1"/>
</svg>
