<svg width="13" height="14" viewBox="0 0 13 14" fill="none" xmlns="http://www.w3.org/2000/svg">
<path opacity="0.2" d="M10.9907 10.7356H1.41348C1.32967 10.7351 1.24745 10.7126 1.17506 10.6704C1.10266 10.6281 1.04262 10.5676 1.00093 10.4949C0.959246 10.4222 0.937373 10.3398 0.937501 10.256C0.937628 10.1722 0.959751 10.0899 1.00166 10.0173C1.39612 9.33494 1.89234 8.0905 1.89234 5.94701C1.89234 4.80399 2.3464 3.70779 3.15463 2.89956C3.96286 2.09133 5.05906 1.63727 6.20208 1.63727C7.34509 1.63727 8.44129 2.09133 9.24952 2.89956C10.0578 3.70779 10.5118 4.80399 10.5118 5.94701C10.5118 8.0911 11.0086 9.33494 11.4037 10.0173C11.4456 10.09 11.4678 10.1724 11.4678 10.2563C11.4679 10.3402 11.4459 10.4227 11.4041 10.4954C11.3623 10.5682 11.3021 10.6287 11.2295 10.6708C11.1569 10.713 11.0746 10.7353 10.9907 10.7356Z" fill="#A1A1A1"/>
<path fill-rule="evenodd" clip-rule="evenodd" d="M8.11759 11.9722C8.29752 11.9723 8.47082 12.0442 8.59806 12.1714C8.72505 12.2987 8.79721 12.4712 8.79728 12.6509C8.79723 12.8309 8.72528 13.0041 8.59806 13.1314C8.47083 13.2586 8.29749 13.3296 8.11759 13.3297H4.28751C4.10762 13.3297 3.93432 13.2585 3.80704 13.1314C3.67977 13.0041 3.60787 12.8309 3.60782 12.6509C3.60789 12.4711 3.67988 12.2987 3.80704 12.1714C3.93435 12.0442 4.1075 11.9722 4.28751 11.9722H8.11759ZM6.20255 0.958557C7.52541 0.95865 8.79445 1.48413 9.72989 2.41949C10.6652 3.35494 11.1907 4.62402 11.1908 5.94684C11.1909 7.49853 11.4735 8.78344 11.9897 9.6734C12.092 9.84907 12.1471 10.0492 12.1479 10.2525C12.1485 10.456 12.0959 10.657 11.9945 10.8336C11.8932 11.01 11.7467 11.1563 11.5707 11.2584C11.3948 11.3603 11.1949 11.4143 10.9916 11.4146H1.41349C1.21023 11.4142 1.0102 11.3604 0.834385 11.2584C0.658557 11.1562 0.512697 11.009 0.411534 10.8326C0.310391 10.6561 0.257481 10.4559 0.258214 10.2525C0.258988 10.0491 0.312961 9.84913 0.41544 9.6734C0.930584 8.78398 1.21425 7.49935 1.21427 5.94684C1.21436 4.6239 1.73974 3.35496 2.67521 2.41949C3.61072 1.48411 4.87961 0.958557 6.20255 0.958557ZM6.20255 2.31598C5.2397 2.31598 4.31606 2.69869 3.63517 3.37946C2.95432 4.0603 2.57178 4.98399 2.57169 5.94684C2.57167 7.58205 2.29865 8.96591 1.74845 10.0572H10.6567C10.1056 8.96533 9.83343 7.58147 9.83341 5.94684C9.83332 4.98411 9.45062 4.06028 8.76993 3.37946C8.08911 2.69871 7.16532 2.31607 6.20255 2.31598ZM3.0004 0.0161743C3.08755 0.0356782 3.17055 0.0721762 3.24357 0.123596C3.31656 0.175074 3.37948 0.24045 3.42716 0.315979C3.47474 0.391441 3.50683 0.476099 3.52189 0.564026C3.53687 0.652013 3.53394 0.742638 3.51407 0.829651C3.49411 0.916803 3.45756 0.999996 3.40567 1.07281C3.35389 1.14546 3.28797 1.20718 3.21232 1.25446C2.3893 1.77829 1.7223 2.51392 1.28165 3.38434L1.28067 3.38629C1.22349 3.49663 1.13682 3.58924 1.03067 3.65387C0.924557 3.7184 0.802329 3.75239 0.678135 3.7525C0.561762 3.75244 0.446577 3.7226 0.345128 3.66559C0.243839 3.60851 0.158496 3.52565 0.0980573 3.42633C0.0377215 3.32693 0.00441119 3.21344 0.000401028 3.09723C-0.00357118 2.98078 0.0219993 2.86475 0.0755963 2.76129H0.0765729C0.630834 1.67869 1.46229 0.762576 2.48673 0.106995H2.48771C2.56298 0.05896 2.64684 0.0258311 2.73478 0.010315C2.82272 -0.00514171 2.91324 -0.00325839 3.0004 0.0161743ZM9.67032 0.010315C9.75819 0.0258732 9.84218 0.0589663 9.91739 0.106995H9.91837C10.943 0.762801 11.7753 1.67927 12.3295 2.76227L12.3315 2.76617C12.4084 2.92528 12.4204 3.1092 12.3647 3.27692C12.3089 3.44437 12.1903 3.58427 12.0336 3.66559C11.8767 3.74691 11.693 3.76351 11.5238 3.71246C11.3548 3.66126 11.212 3.54565 11.1264 3.39117L11.1234 3.38434C10.6829 2.51404 10.0156 1.77828 9.19278 1.25446C9.11715 1.20723 9.05122 1.14539 8.99942 1.07281C8.94756 1.00003 8.911 0.916767 8.89103 0.829651C8.87115 0.742599 8.86821 0.652052 8.88321 0.564026C8.89829 0.475995 8.93027 0.391506 8.97794 0.315979C9.02568 0.240367 9.08843 0.175096 9.16153 0.123596C9.23461 0.0721718 9.31749 0.0356438 9.4047 0.0161743C9.49185 -0.00321224 9.58239 -0.00517737 9.67032 0.010315Z" fill="#A1A1A1"/>
</svg>
