<svg width="13" height="12" viewBox="0 0 13 12" fill="none" xmlns="http://www.w3.org/2000/svg">
<path d="M11.739 1.20925V8.53923C11.739 8.81694 11.6418 9.08329 11.4687 9.27966C11.2956 9.47604 11.0608 9.58636 10.816 9.58636H7.78307L6.20057 7.49209L4.61807 9.58636H1.58519C1.34037 9.58636 1.10558 9.47604 0.932472 9.27966C0.759362 9.08329 0.662109 8.81694 0.662109 8.53923V1.20925C0.662109 0.93153 0.759362 0.665186 0.932472 0.468809C1.10558 0.272433 1.34037 0.162109 1.58519 0.162109H10.816C11.0608 0.162109 11.2956 0.272433 11.4687 0.468809C11.6418 0.665186 11.739 0.93153 11.739 1.20925Z" fill="#37A3D0"/>
<path d="M6.2002 6.46191C6.29554 6.46191 6.38993 6.48266 6.47656 6.52246C6.56319 6.56231 6.64105 6.62 6.70312 6.69238L9.47168 9.92285C9.55401 10.0188 9.60641 10.1375 9.62402 10.2627C9.64147 10.3877 9.6229 10.5152 9.57031 10.6299C9.5175 10.7448 9.43263 10.8428 9.32617 10.9111C9.21977 10.9793 9.09608 11.0156 8.96973 11.0156H3.43066C3.30431 11.0156 3.18062 10.9793 3.07422 10.9111C2.96776 10.8428 2.88289 10.7448 2.83008 10.6299C2.77749 10.5152 2.75893 10.3877 2.77637 10.2627C2.79398 10.1375 2.84638 10.0188 2.92871 9.92285L5.69824 6.69238C5.76022 6.62016 5.83739 6.56228 5.92383 6.52246C6.01042 6.48265 6.10489 6.46196 6.2002 6.46191ZM4.86914 9.69238H7.53125L6.2002 8.13867L4.86914 9.69238ZM10.8154 0C11.2356 0 11.6394 0.166809 11.9365 0.463867C12.2336 0.760954 12.4003 1.16483 12.4004 1.58496V8.0459C12.4004 8.46601 12.2335 8.86985 11.9365 9.16699C11.6394 9.46416 11.2357 9.63086 10.8154 9.63086H10.3545C10.1792 9.63086 10.0107 9.56133 9.88672 9.4375C9.76284 9.31353 9.69246 9.14498 9.69238 8.96973C9.69248 8.79441 9.76274 8.62593 9.88672 8.50195C10.0108 8.37805 10.1792 8.30762 10.3545 8.30762H10.8154C10.8848 8.30762 10.9519 8.28049 11.001 8.23145C11.0498 8.18243 11.0771 8.11511 11.0771 8.0459V1.58496C11.0771 1.51573 11.0499 1.44838 11.001 1.39941C10.9519 1.35048 10.8847 1.32324 10.8154 1.32324H1.58496C1.51568 1.32324 1.44845 1.35048 1.39941 1.39941C1.35045 1.44838 1.32334 1.51573 1.32324 1.58496V8.0459C1.32324 8.11511 1.35058 8.18243 1.39941 8.23145C1.44846 8.28049 1.5156 8.30762 1.58496 8.30762H2.0459C2.22123 8.30762 2.38963 8.37805 2.51367 8.50195C2.63765 8.62593 2.70791 8.79441 2.70801 8.96973C2.70793 9.14498 2.63755 9.31353 2.51367 9.4375C2.38965 9.56133 2.22117 9.63086 2.0459 9.63086H1.58496C1.16469 9.63086 0.76104 9.46416 0.463867 9.16699C0.166903 8.86985 0 8.46601 0 8.0459V1.58496C9.68058e-05 1.16483 0.16678 0.760954 0.463867 0.463867C0.761023 0.166809 1.16478 0 1.58496 0H10.8154Z" fill="#37A3D0"/>
</svg>
