<svg width="13" height="14" viewBox="0 0 13 14" fill="none" xmlns="http://www.w3.org/2000/svg">
<path d="M12.2428 9.56395L6.49527 12.9156L0.747749 9.56395C0.633951 9.50729 0.502838 9.49613 0.381098 9.53273C0.259358 9.56933 0.156139 9.65094 0.0924523 9.76096C0.0287652 9.87098 0.00939597 10.0011 0.0382869 10.1249C0.0671778 10.2487 0.142157 10.3569 0.247965 10.4273L6.24538 13.9258C6.3218 13.9704 6.40868 13.9939 6.49715 13.9939C6.58561 13.9939 6.67249 13.9704 6.74891 13.9258L12.7463 10.4273C12.8039 10.3947 12.8545 10.351 12.8951 10.2987C12.9356 10.2465 12.9654 10.1866 12.9827 10.1227C13 10.0588 13.0044 9.99216 12.9957 9.92655C12.9869 9.86095 12.9653 9.79772 12.9319 9.74055C12.8986 9.68338 12.8542 9.6334 12.8014 9.59351C12.7486 9.55363 12.6884 9.52463 12.6243 9.5082C12.5602 9.49177 12.4934 9.48824 12.4279 9.49781C12.3625 9.50738 12.2995 9.52986 12.2428 9.56395Z" fill="#555555"/>
<path d="M12.2428 6.56523L6.49527 9.91691L0.747749 6.56523C0.633951 6.50857 0.502838 6.49741 0.381098 6.53401C0.259358 6.57061 0.156139 6.65222 0.0924523 6.76224C0.0287652 6.87226 0.00939597 7.00242 0.0382869 7.12621C0.0671778 7.25001 0.142157 7.35815 0.247965 7.42861L6.24538 10.9271C6.3218 10.9717 6.40868 10.9951 6.49715 10.9951C6.58561 10.9951 6.67249 10.9717 6.74891 10.9271L12.7463 7.42861C12.8039 7.39602 12.8545 7.35231 12.8951 7.30002C12.9356 7.24774 12.9654 7.18791 12.9827 7.12402C13 7.06013 13.0044 6.99344 12.9957 6.92784C12.9869 6.86223 12.9653 6.799 12.9319 6.74183C12.8986 6.68466 12.8542 6.63468 12.8014 6.59479C12.7486 6.55491 12.6884 6.52591 12.6243 6.50948C12.5602 6.49305 12.4934 6.48952 12.4279 6.49909C12.3625 6.50866 12.2995 6.53114 12.2428 6.56523Z" fill="#555555"/>
<path d="M0.247933 4.42992L6.24535 7.92841C6.32177 7.97297 6.40865 7.99645 6.49711 7.99645C6.58558 7.99645 6.67246 7.97297 6.74888 7.92841L12.7463 4.42992C12.8217 4.3859 12.8843 4.32288 12.9278 4.24714C12.9713 4.17139 12.9942 4.08557 12.9942 3.99823C12.9942 3.91088 12.9713 3.82506 12.9278 3.74932C12.8843 3.67357 12.8217 3.61055 12.7463 3.56654L6.74888 0.068046C6.67246 0.0234815 6.58558 0 6.49711 0C6.40865 0 6.32177 0.0234815 6.24535 0.068046L0.247933 3.56654C0.172487 3.61055 0.109895 3.67357 0.0663931 3.74932C0.0228915 3.82506 0 3.91088 0 3.99823C0 4.08557 0.0228915 4.17139 0.0663931 4.24714C0.109895 4.32288 0.172487 4.3859 0.247933 4.42992Z" fill="#555555"/>
</svg>
