<svg width="13" height="15" viewBox="0 0 13 15" fill="none" xmlns="http://www.w3.org/2000/svg">
<path opacity="0.2" d="M4.12564 11.7017L2.28491 13.0917C2.21861 13.1448 2.13988 13.1801 2.05615 13.1944C1.97241 13.2086 1.88643 13.2013 1.80632 13.1731C1.7262 13.1449 1.65459 13.0967 1.59824 13.0332C1.54189 12.9696 1.50266 12.8928 1.48424 12.8098L0.711697 9.33277C0.695049 9.25812 0.695746 9.18065 0.713734 9.10632C0.731721 9.03199 0.76652 8.96277 0.815453 8.90399L2.70994 6.63324C2.63743 8.09207 2.9937 9.79092 4.12564 11.7017ZM11.5848 8.90399L9.69033 6.63324C9.76596 8.09207 9.40657 9.79092 8.27463 11.7017L10.1154 13.0917C10.1817 13.1448 10.2604 13.1801 10.3441 13.1944C10.4279 13.2086 10.5138 13.2013 10.594 13.1731C10.6741 13.1449 10.7457 13.0967 10.802 13.0332C10.8584 12.9696 10.8976 12.8928 10.916 12.8098L11.6886 9.33277C11.7052 9.25812 11.7045 9.18065 11.6865 9.10632C11.6686 9.03199 11.6338 8.96277 11.5848 8.90399Z" fill="#A1A1A1"/>
<path fill-rule="evenodd" clip-rule="evenodd" d="M7.19986 13.002C7.38546 13.002 7.56371 13.0758 7.69498 13.207C7.82615 13.3383 7.90005 13.5166 7.90005 13.7021C7.89995 13.8875 7.826 14.0651 7.69498 14.1963C7.56371 14.3275 7.38546 14.4014 7.19986 14.4014H5.19986C5.01429 14.4013 4.83596 14.3275 4.70474 14.1963C4.5738 14.0651 4.49977 13.8875 4.49966 13.7021C4.49966 13.5166 4.57365 13.3383 4.70474 13.207C4.83596 13.0758 5.01429 13.002 5.19986 13.002H7.19986ZM6.19986 0C6.46591 0 6.72488 0.0890367 6.93521 0.251953H6.93423C7.53141 0.713583 9.00851 2.00793 9.83365 4.07617L9.94205 4.35938C10.1737 5.00451 10.3188 5.67764 10.3766 6.36133L12.1227 8.45605L12.2038 8.56641C12.2785 8.68101 12.3335 8.80777 12.3659 8.94141C12.409 9.1193 12.4109 9.30462 12.3717 9.4834V9.48438L11.5993 12.9609C11.5553 13.1589 11.4619 13.343 11.3278 13.4951C11.1935 13.6472 11.0218 13.7628 10.8307 13.8311C10.6397 13.8992 10.4342 13.9184 10.234 13.8857C10.034 13.853 9.84552 13.7698 9.68619 13.6445V13.6436L8.03873 12.4014H4.36197L2.7106 13.6475L2.70963 13.6465C2.55097 13.7702 2.3643 13.8533 2.16568 13.8857C1.96556 13.9183 1.75997 13.8992 1.569 13.8311C1.37795 13.7628 1.20618 13.6472 1.07193 13.4951C0.937849 13.343 0.844381 13.1589 0.800446 12.9609L0.0279848 9.48438V9.4834C-0.0112062 9.30465 -0.00921612 9.11926 0.0338441 8.94141C0.0769384 8.76346 0.16029 8.59712 0.277008 8.45605L2.02213 6.36133C2.08848 5.57687 2.27168 4.80658 2.56607 4.07617L2.72818 3.69727C3.57218 1.8495 4.90345 0.684073 5.46548 0.250977C5.67564 0.0883969 5.93415 5.64053e-05 6.19986 0ZM1.41568 9.27539L2.10025 12.3545L3.21939 11.5088C2.66667 10.472 2.29737 9.44663 2.11881 8.43164L1.41568 9.27539ZM10.2799 8.43164C10.1022 9.44507 9.7337 10.4702 9.1813 11.5088L10.2995 12.3525L10.9831 9.27539L10.2799 8.43164ZM6.19986 1.45703C5.69971 1.86466 4.51882 2.95646 3.8649 4.5957C3.07181 6.58629 3.28658 8.73406 4.53384 11.002H7.86588C9.11321 8.73399 9.32816 6.5863 8.53384 4.5957C7.88001 2.95674 6.69935 1.86491 6.19986 1.45703ZM6.38541 5.01953C6.56953 5.0562 6.73895 5.14658 6.87173 5.2793C7.0045 5.41207 7.09479 5.58149 7.1315 5.76562C7.16813 5.94976 7.14955 6.14097 7.07779 6.31445C7.00588 6.48801 6.88341 6.63684 6.7272 6.74121C6.57108 6.84539 6.38756 6.90137 6.19986 6.90137C5.94798 6.9013 5.70609 6.80115 5.52798 6.62305C5.34994 6.4449 5.24966 6.20305 5.24966 5.95117C5.24969 5.76348 5.30563 5.57994 5.40982 5.42383C5.51417 5.26766 5.66307 5.14516 5.83658 5.07324C6.01 5.00149 6.20132 4.98296 6.38541 5.01953Z" fill="#A1A1A1"/>
</svg>
