<svg width="13" height="13" viewBox="0 0 13 13" fill="none" xmlns="http://www.w3.org/2000/svg">
<path opacity="0.2" d="M11.4141 5.33177L6.66164 6.65912L5.33429 11.4116C5.30574 11.5048 5.24847 11.5865 5.17065 11.6451C5.09283 11.7037 4.99846 11.7362 4.90105 11.738C4.80364 11.7397 4.70818 11.7106 4.62833 11.6547C4.54848 11.5989 4.48833 11.5193 4.4565 11.4272L0.68914 1.27008C0.661428 1.1886 0.657042 1.10099 0.676478 1.01715C0.695913 0.933313 0.738397 0.856575 0.799133 0.795599C0.859869 0.734623 0.936439 0.691837 1.0202 0.672071C1.10396 0.652304 1.19159 0.656345 1.27317 0.683735L11.4303 4.4511C11.5234 4.48229 11.6042 4.54239 11.6609 4.62265C11.7175 4.7029 11.7471 4.79914 11.7453 4.89736C11.7435 4.99558 11.7104 5.09067 11.6508 5.16879C11.5913 5.24692 11.5084 5.30401 11.4141 5.33177Z" fill="#A1A1A1"/>
<path d="M11.5859 4.01652L1.43341 0.2532L1.42418 0.250314C1.26076 0.194048 1.08483 0.184776 0.916402 0.223552C0.747974 0.262329 0.593811 0.347598 0.471449 0.46966C0.349087 0.591721 0.263439 0.745674 0.224248 0.914005C0.185057 1.08234 0.193896 1.25829 0.249761 1.42184C0.250462 1.425 0.251428 1.42809 0.252646 1.43108L4.01886 11.5836C4.08071 11.7646 4.19804 11.9215 4.35416 12.0321C4.51029 12.1426 4.69727 12.2011 4.88856 12.1993H4.90587C5.10094 12.1979 5.29037 12.1337 5.44622 12.0164C5.60208 11.8991 5.71612 11.7348 5.77154 11.5478L5.775 11.5362L7.0354 7.0348L11.5368 5.7744L11.5484 5.77093C11.734 5.71381 11.897 5.59958 12.0139 5.44452C12.1309 5.28945 12.196 5.10144 12.2 4.90724C12.204 4.71304 12.1466 4.52253 12.036 4.36282C11.9255 4.20311 11.7673 4.08233 11.5842 4.01768L11.5859 4.01652ZM6.53678 6.21473C6.46055 6.23613 6.3911 6.27678 6.3351 6.33277C6.27911 6.38876 6.23846 6.45821 6.21706 6.53445L4.88971 11.276L4.88625 11.2662L1.12119 1.11886L11.2679 4.88276L11.2772 4.88623L6.53678 6.21473Z" fill="#A1A1A1" stroke="#A1A1A1" stroke-width="0.4" stroke-linejoin="bevel"/>
</svg>
