<svg width="28" height="17" viewBox="0 0 28 17" fill="none" xmlns="http://www.w3.org/2000/svg">
<path d="M13.9211 7.00062C16.1535 7.00062 18.0479 6.48917 19.6606 5.75723C19.6606 5.75592 19.6606 5.75853 19.6606 5.75723C19.0761 6.01556 17.9109 6.29999 17.0264 6.29999C14.764 6.29999 12.7469 5.64894 11.0808 4.37945C9.5073 3.18173 8.04211 0.984596 7.41715 0.452274C6.78959 -0.078743 6.07461 -0.125713 5.49531 0.225255C4.88993 0.591878 4.76468 1.63304 4.90428 2.69377C4.93298 2.91296 5.01127 3.50791 5.07259 3.90323C5.47835 4.20723 5.93239 4.52297 6.44775 4.83741C8.38655 6.02469 10.8316 7.00062 13.9198 7.00062H13.9211Z" fill="#F3C300"/>
<path d="M27.0883 1.50127C26.4412 1.20119 25.8058 1.33688 25.1273 1.8966C24.4124 2.48633 23.3034 3.66579 21.3907 4.83742C20.8544 5.1662 20.2777 5.47672 19.6606 5.75724C18.048 6.48918 16.1535 7.00063 13.9212 7.00063C10.8329 7.00063 8.3879 6.0247 6.4491 4.83742C5.93505 4.52298 5.4797 4.20724 5.07394 3.90324C3.96885 3.07475 3.23429 2.32846 2.71241 1.8979C2.03396 1.33818 1.39987 1.2038 0.75143 1.50257C0.156481 1.77526 -0.0509677 2.50459 0.0103537 3.24958C0.143434 4.87264 1.38161 8.16312 3.50959 10.8848C5.87764 13.9143 9.86614 16.5185 13.9212 16.5185C17.9762 16.5185 21.9621 13.9143 24.3302 10.8848C26.4582 8.16182 27.6976 4.87134 27.8294 3.24958C27.8907 2.5059 27.6833 1.77526 27.0883 1.50257V1.50127Z" fill="#3CB4E5"/>
</svg>
