<svg width="13" height="13" viewBox="0 0 13 13" fill="none" xmlns="http://www.w3.org/2000/svg">
<path d="M11.6262 10.9227L10.9229 11.626C10.8395 11.7093 10.7265 11.7561 10.6087 11.7561C10.4909 11.7561 10.3779 11.7093 10.2945 11.626L7.44395 8.77542C7.39276 8.72411 7.3298 8.6861 7.26055 8.6647C7.19131 8.64329 7.11788 8.63915 7.04666 8.65262C6.97545 8.6661 6.90861 8.69679 6.85198 8.74201C6.79534 8.78724 6.75062 8.84562 6.72172 8.91209L5.73171 11.4904C5.69492 11.5715 5.63465 11.6396 5.55873 11.6859C5.4828 11.7323 5.3947 11.7548 5.30583 11.7506C5.21696 11.7463 5.13141 11.7155 5.06025 11.6621C4.98909 11.6087 4.9356 11.5351 4.9067 11.451L2.00113 2.55815C1.97735 2.48093 1.97507 2.39869 1.99454 2.32027C2.01401 2.24185 2.05449 2.17022 2.11162 2.11309C2.16875 2.05595 2.24038 2.01547 2.3188 1.99601C2.39722 1.97654 2.47946 1.97881 2.55669 2.00259L11.4512 4.90484C11.5353 4.93374 11.6089 4.98723 11.6623 5.05838C11.7157 5.12954 11.7465 5.21509 11.7508 5.30396C11.755 5.39283 11.7325 5.48093 11.6861 5.55686C11.6398 5.63279 11.5717 5.69305 11.4906 5.72984L8.91229 6.71985C8.84583 6.74875 8.78744 6.79347 8.74221 6.85011C8.69699 6.90674 8.6663 6.97358 8.65282 7.0448C8.63935 7.11601 8.64349 7.18944 8.6649 7.25869C8.6863 7.32793 8.72431 7.39089 8.77563 7.44208L11.6262 10.2927C11.6677 10.334 11.7006 10.383 11.7231 10.4371C11.7455 10.4912 11.7571 10.5491 11.7571 10.6077C11.7571 10.6662 11.7455 10.7242 11.7231 10.7782C11.7006 10.8323 11.6677 10.8814 11.6262 10.9227Z" fill="#37A3D0"/>
<path d="M2.16797 1.36621C2.36235 1.31913 2.56636 1.32669 2.75684 1.3877H2.75781L11.6514 4.29199H11.6523C11.8605 4.36162 12.0433 4.49297 12.1758 4.66797C12.3082 4.843 12.3841 5.05423 12.3945 5.27344C12.4049 5.49268 12.3487 5.7097 12.2334 5.89648C12.1181 6.0832 11.9496 6.2313 11.749 6.32031L11.7432 6.32324L11.7246 6.33008L11.7217 6.33105L9.44824 7.2041L12.0811 9.83691C12.1821 9.93796 12.2627 10.0584 12.3174 10.1904C12.3719 10.3223 12.4003 10.4637 12.4004 10.6064C12.4004 10.7494 12.3721 10.8914 12.3174 11.0234C12.2626 11.1556 12.1822 11.2758 12.0811 11.377L11.377 12.0811C11.2758 12.1822 11.1556 12.2626 11.0234 12.3174C10.8914 12.3721 10.7494 12.4004 10.6064 12.4004C10.4637 12.4003 10.3223 12.3719 10.1904 12.3174C10.0584 12.2627 9.93796 12.1821 9.83691 12.0811L7.2041 9.44824L6.33496 11.709C6.33444 11.7108 6.3354 11.7132 6.33496 11.7148C6.33044 11.729 6.32515 11.7402 6.32227 11.7461L6.31738 11.7559L6.31641 11.7568C6.3168 11.7559 6.31792 11.7531 6.31934 11.75L6.31836 11.749C6.23475 11.9422 6.09781 12.107 5.92188 12.2227C5.78912 12.3098 5.63934 12.3672 5.4834 12.3896L5.32617 12.4004H5.27441C5.05367 12.391 4.84069 12.3137 4.66504 12.1797C4.48945 12.0456 4.35827 11.8608 4.29102 11.6504V11.6494L1.3877 2.75781V2.75684C1.32669 2.56636 1.31913 2.36235 1.36621 2.16797C1.41334 1.97364 1.5129 1.79569 1.6543 1.6543C1.79569 1.5129 1.97364 1.41334 2.16797 1.36621ZM5.33691 10.7051L6.11133 8.6875C6.11637 8.67016 6.12251 8.65755 6.125 8.65234C6.12785 8.6464 6.13084 8.64067 6.13086 8.64062L6.12793 8.64746C6.19868 8.48588 6.30752 8.34356 6.44531 8.2334C6.58394 8.12264 6.74853 8.04775 6.92285 8.01465L7.02441 8C7.05805 7.99687 7.09216 7.99522 7.12598 7.99512H7.12695C7.41522 7.99552 7.69167 8.11062 7.89551 8.31445L10.6064 11.0273L11.0283 10.6064L8.31934 7.89746C8.19387 7.77214 8.1012 7.61766 8.04883 7.44824C7.9965 7.27863 7.98549 7.09823 8.01855 6.92383C8.05164 6.74947 8.12751 6.58592 8.23828 6.44727C8.34898 6.30875 8.49172 6.19868 8.6543 6.12793L8.67188 6.12012L8.68066 6.11719L10.707 5.33789L2.73438 2.73438L5.33691 10.7051ZM1.4873 6.22461C1.57165 6.21859 1.65707 6.22917 1.7373 6.25586C1.81748 6.28258 1.89217 6.32455 1.95605 6.37988C2.01994 6.43526 2.07249 6.50351 2.11035 6.5791C2.14808 6.65462 2.17072 6.73709 2.17676 6.82129C2.18278 6.90567 2.17222 6.99102 2.14551 7.07129C2.11878 7.15143 2.07582 7.22521 2.02051 7.28906C1.96516 7.35292 1.89782 7.4055 1.82227 7.44336L0.932617 7.8877C0.779895 7.96402 0.603412 7.97673 0.441406 7.92285C0.279328 7.86881 0.144811 7.75241 0.0683594 7.59961C-0.00782834 7.44698 -0.0206157 7.27029 0.0332031 7.1084C0.0872169 6.9463 0.203651 6.81183 0.356445 6.73535L1.24512 6.29102C1.32063 6.25323 1.40309 6.23069 1.4873 6.22461ZM1.08887 4.44434C1.2597 4.44434 1.42408 4.51304 1.54492 4.63379C1.66554 4.75452 1.73327 4.91822 1.7334 5.08887C1.7334 5.25978 1.66577 5.42407 1.54492 5.54492C1.42406 5.66578 1.25979 5.7334 1.08887 5.7334H0.644531C0.473855 5.73331 0.310209 5.66554 0.189453 5.54492C0.0687035 5.42408 0 5.2597 0 5.08887C0.000123976 4.91812 0.0687056 4.75454 0.189453 4.63379C0.310228 4.51305 0.473764 4.44442 0.644531 4.44434H1.08887ZM7.1084 0.0332031C7.27029 -0.0206157 7.44698 -0.00782862 7.59961 0.0683594C7.75241 0.144811 7.86881 0.279328 7.92285 0.441406C7.97673 0.603412 7.96401 0.779896 7.8877 0.932617L7.44336 1.82227C7.40555 1.89784 7.35289 1.96512 7.28906 2.02051C7.22522 2.07588 7.15145 2.11874 7.07129 2.14551C6.991 2.17226 6.9057 2.18277 6.82129 2.17676C6.73687 2.17071 6.6538 2.14825 6.57812 2.11035C6.50265 2.07249 6.43518 2.01987 6.37988 1.95605C6.32458 1.89215 6.28255 1.81749 6.25586 1.7373C6.2292 1.65702 6.21853 1.57168 6.22461 1.4873C6.23075 1.40303 6.25314 1.32065 6.29102 1.24512L6.73535 0.356445C6.81183 0.203651 6.9463 0.0872169 7.1084 0.0332031ZM5.08887 0C5.2597 0 5.42408 0.0687035 5.54492 0.189453C5.66554 0.310209 5.73331 0.473855 5.7334 0.644531V1.08887C5.7334 1.25979 5.66578 1.42406 5.54492 1.54492C5.42407 1.66577 5.25978 1.7334 5.08887 1.7334C4.91822 1.73328 4.75452 1.66554 4.63379 1.54492C4.51304 1.42408 4.44434 1.2597 4.44434 1.08887V0.644531C4.44442 0.473764 4.51305 0.310228 4.63379 0.189453C4.75454 0.0687055 4.91812 0.00012385 5.08887 0Z" fill="#37A3D0"/>
</svg>
