<svg width="9" height="14" viewBox="0 0 9 14" fill="none" xmlns="http://www.w3.org/2000/svg">
<path d="M5.14258 12.8574H6.42871C6.66521 12.8576 6.85645 13.0496 6.85645 13.2861C6.85639 13.5226 6.66518 13.7146 6.42871 13.7148H2.14258C1.90592 13.7148 1.71392 13.5228 1.71387 13.2861C1.71387 13.0494 1.90588 12.8574 2.14258 12.8574H3.42871V11.1436H5.14258V12.8574ZM8.14258 5.14258C8.37893 5.1428 8.57104 5.33494 8.57129 5.57129V7.28516C8.57129 9.41512 6.8447 11.1421 4.71484 11.1426H3.85742C1.72718 11.1426 0 9.4154 0 7.28516V5.57129C0.000245332 5.3348 0.192169 5.14258 0.428711 5.14258C0.665061 5.1428 0.857177 5.33494 0.857422 5.57129V7.28516C0.857422 8.94201 2.20057 10.2852 3.85742 10.2852H4.71484C6.37131 10.2847 7.71484 8.94173 7.71484 7.28516V5.57129C7.71509 5.33494 7.90623 5.1428 8.14258 5.14258ZM4.28516 0C5.70517 0 6.8562 1.15134 6.85645 2.57129V6.85742L6.84375 7.12012C6.71205 8.41676 5.61655 9.42871 4.28516 9.42871L4.02246 9.41504C2.81233 9.29209 1.85048 8.33025 1.72754 7.12012L1.71387 6.85742V2.57129C1.71411 1.15143 2.86528 0.000150581 4.28516 0Z" fill="black"/>
</svg>
