<svg width="13" height="13" viewBox="0 0 13 13" fill="none" xmlns="http://www.w3.org/2000/svg">
<path d="M6.02051 0C6.20462 3.28906e-05 6.3867 0.0466982 6.54785 0.135742L6.54688 0.136719L11.4717 2.83008C11.6439 2.92437 11.7885 3.06358 11.8887 3.23242C11.9887 3.40131 12.0419 3.5947 12.042 3.79102V9.14355L12.0312 9.29004C12.0114 9.43464 11.9628 9.57485 11.8877 9.70117C11.7875 9.86961 11.6436 10.0085 11.4717 10.1025L6.54688 12.7988L6.5459 12.7979C6.38504 12.8865 6.20418 12.9336 6.02051 12.9336C5.83678 12.9335 5.656 12.8866 5.49512 12.7979V12.7988L0.569336 10.1025C0.397638 10.0085 0.254414 9.86939 0.154297 9.70117C0.0541625 9.53268 0.000519685 9.33955 0 9.14355V3.79004C0.000466027 3.59408 0.0542559 3.40189 0.154297 3.2334C0.254384 3.06498 0.397535 2.92617 0.569336 2.83203L5.49414 0.136719C5.65523 0.0477099 5.83647 6.98513e-05 6.02051 0ZM1.2959 9.02539L5.37305 11.2549V6.90918L1.2959 4.67773V9.02539ZM9.35547 5.44043V7.81055C9.35536 7.98219 9.28642 8.14717 9.16504 8.26855C9.04362 8.38989 8.87868 8.45893 8.70703 8.45898C8.53552 8.45888 8.37038 8.38975 8.24902 8.26855C8.12785 8.14721 8.05968 7.98203 8.05957 7.81055V6.14941L6.66895 6.91113V11.2549L10.7461 9.02344V4.67871L9.35547 5.44043ZM1.93945 3.55664L6.02051 5.79199L7.50195 4.98047L3.4209 2.74609L1.93945 3.55664ZM4.77051 2.00684L8.85059 4.24121L10.1006 3.55664L6.02051 1.32227L4.77051 2.00684Z" fill="#555555"/>
<path d="M5.98855 6.65207L0.88015 3.97107V9.58667L5.98855 12.4851V6.65207Z" fill="#555555"/>
</svg>
