<svg width="33" height="20" viewBox="0 0 33 20" fill="none" xmlns="http://www.w3.org/2000/svg">
<path d="M16.0691 8.08072C18.6459 8.08072 20.8326 7.49036 22.694 6.64549C22.694 6.64398 22.694 6.647 22.694 6.64549C22.0193 6.94368 20.6745 7.27199 19.6534 7.27199C17.042 7.27199 14.7137 6.52049 12.7905 5.05515C10.9743 3.67263 9.28301 1.13652 8.56164 0.522068C7.83725 -0.0908765 7.01195 -0.145093 6.34329 0.260023C5.6445 0.683211 5.49992 1.885 5.66107 3.10939C5.6942 3.3624 5.78456 4.04914 5.85534 4.50546C6.32371 4.85636 6.8478 5.22081 7.44267 5.58376C9.6806 6.95422 12.5029 8.08072 16.0676 8.08072H16.0691Z" fill="#F3C300"/>
<path d="M31.2677 1.73293C30.5207 1.38655 29.7873 1.54317 29.0042 2.18925C28.1789 2.86996 26.8988 4.2314 24.6909 5.58379C24.072 5.9633 23.4063 6.32173 22.694 6.64552C20.8326 7.49039 18.6458 8.08075 16.0691 8.08075C12.5043 8.08075 9.68209 6.95426 7.44416 5.58379C6.85079 5.22084 6.3252 4.85639 5.85683 4.50549C4.58124 3.54917 3.73336 2.68774 3.13096 2.19076C2.34783 1.54468 1.61591 1.38956 0.867427 1.73444C0.180688 2.04919 -0.0587673 2.89105 0.0120151 3.75098C0.165628 5.62445 1.59483 9.4226 4.05113 12.5641C6.78453 16.0611 11.3884 19.0671 16.0691 19.0671C20.7497 19.0671 25.3506 16.0611 28.084 12.5641C30.5403 9.42109 31.971 5.62294 32.1231 3.75098C32.1939 2.89256 31.9544 2.04919 31.2677 1.73444V1.73293Z" fill="#3CB4E5"/>
</svg>
