<svg width="11" height="11" viewBox="0 0 11 11" fill="none" xmlns="http://www.w3.org/2000/svg">
<path d="M10.3354 9.70562L9.70528 10.3357C9.63062 10.4103 9.52939 10.4522 9.42383 10.4522C9.31828 10.4522 9.21705 10.4103 9.14239 10.3357L6.5887 7.78197C6.54285 7.73601 6.48644 7.70195 6.42441 7.68278C6.36238 7.6636 6.29659 7.65989 6.2328 7.67196C6.169 7.68403 6.10912 7.71152 6.05839 7.75204C6.00765 7.79255 5.96759 7.84486 5.9417 7.90441L5.0548 10.2143C5.02184 10.2868 4.96785 10.3479 4.89983 10.3894C4.83181 10.4309 4.75289 10.4511 4.67327 10.4473C4.59366 10.4435 4.51702 10.4159 4.45327 10.368C4.38953 10.3202 4.34161 10.2543 4.31572 10.1789L1.71276 2.21212C1.69146 2.14294 1.68942 2.06926 1.70686 1.999C1.72431 1.92875 1.76057 1.86458 1.81175 1.8134C1.86293 1.76221 1.9271 1.72595 1.99735 1.70851C2.06761 1.69107 2.14128 1.69311 2.21046 1.71441L10.1786 4.31444C10.254 4.34033 10.3199 4.38825 10.3677 4.452C10.4155 4.51574 10.4432 4.59238 10.447 4.672C10.4508 4.75162 10.4306 4.83054 10.389 4.89856C10.3475 4.96658 10.2865 5.02057 10.2139 5.05353L7.90412 5.94045C7.84457 5.96634 7.79226 6.0064 7.75175 6.05714C7.71124 6.10788 7.68374 6.16776 7.67167 6.23156C7.6596 6.29536 7.66331 6.36114 7.68249 6.42318C7.70166 6.48521 7.73572 6.54161 7.78168 6.58747L10.3354 9.14121C10.3725 9.17821 10.402 9.22219 10.4222 9.27062C10.4423 9.31904 10.4526 9.37097 10.4526 9.42342C10.4526 9.47586 10.4423 9.52779 10.4222 9.57622C10.402 9.62464 10.3725 9.66862 10.3354 9.70562Z" fill="white"/>
<path d="M1.88086 1.2207C2.04086 1.18195 2.20943 1.18807 2.36621 1.23828V1.23926L10.333 3.84082H10.334C10.5053 3.89813 10.6556 4.00635 10.7646 4.15039C10.8735 4.29441 10.9367 4.46811 10.9453 4.64844C10.9538 4.82878 10.9073 5.00746 10.8125 5.16113C10.7176 5.3149 10.5783 5.4365 10.4131 5.50977L10.4102 5.51172L10.3945 5.51758L10.3926 5.51855L8.24316 6.34375L10.6875 8.78906C10.7705 8.87212 10.8369 8.97066 10.8818 9.0791C10.9269 9.18781 10.9502 9.30519 10.9502 9.42285C10.9501 9.5404 10.9268 9.65702 10.8818 9.76562C10.8368 9.87437 10.7707 9.97341 10.6875 10.0566L10.0557 10.6875C9.97255 10.7706 9.87417 10.8368 9.76562 10.8818C9.65688 10.9269 9.53957 10.9502 9.42188 10.9502C9.30433 10.9501 9.1877 10.9268 9.0791 10.8818C8.97045 10.8368 8.87125 10.7707 8.78809 10.6875L6.34375 8.24219L5.51953 10.3887V10.3906C5.51714 10.3981 5.51443 10.4046 5.5127 10.4082C5.51116 10.4113 5.50916 10.4153 5.50879 10.416C5.43995 10.5745 5.3261 10.7098 5.18164 10.8047C5.03611 10.9002 4.86547 10.9508 4.69141 10.9502H4.64844C4.46685 10.9425 4.29194 10.8788 4.14746 10.7686C4.00301 10.6582 3.89514 10.5062 3.83984 10.333V10.332L1.23926 2.36621H1.23828C1.18808 2.20944 1.18195 2.04085 1.2207 1.88086C1.25952 1.72098 1.34167 1.57435 1.45801 1.45801C1.57436 1.34166 1.72096 1.25951 1.88086 1.2207ZM4.69531 9.74707L5.47363 7.72168H5.47461C5.47689 7.71474 5.47722 7.70878 5.47852 7.70605C5.48017 7.70259 5.48199 7.69905 5.48242 7.69824C5.48308 7.69702 5.48304 7.69786 5.48242 7.69922C5.54068 7.56609 5.6306 7.44914 5.74414 7.3584C5.85825 7.26723 5.99323 7.20499 6.13672 7.17773L6.21973 7.16602C6.24757 7.1634 6.27571 7.16221 6.30371 7.16211H6.30469C6.542 7.16241 6.76969 7.25701 6.9375 7.4248L9.42188 9.91211L9.91113 9.42188L7.42871 6.93945V6.93848C7.32568 6.83537 7.24907 6.70862 7.20605 6.56934C7.16299 6.42972 7.15442 6.28125 7.18164 6.1377C7.2089 5.99418 7.27111 5.85923 7.3623 5.74512C7.45349 5.63106 7.57116 5.54063 7.70508 5.48242L7.7207 5.47559L7.72559 5.47363L9.74902 4.69629L2.24609 2.24609L4.69531 9.74707ZM1.25879 5.5752C1.32381 5.57058 1.38931 5.57909 1.45117 5.59961C1.51317 5.62026 1.57072 5.65351 1.62012 5.69629C1.66948 5.73908 1.70999 5.79121 1.73926 5.84961C1.7685 5.90806 1.78634 5.97192 1.79102 6.03711C1.79564 6.10219 1.78717 6.16758 1.7666 6.22949C1.74598 6.29142 1.7136 6.34908 1.6709 6.39844C1.62805 6.44787 1.57511 6.4883 1.5166 6.51758L0.720703 6.91602C0.602685 6.97505 0.466048 6.98494 0.34082 6.94336C0.215578 6.90159 0.111833 6.81142 0.0527344 6.69336C-0.00625942 6.57531 -0.0162484 6.4387 0.0253906 6.31348C0.0670886 6.18837 0.156569 6.08454 0.274414 6.02539L1.07129 5.62695C1.12974 5.59771 1.19359 5.57987 1.25879 5.5752ZM0.895508 3.98145C1.02745 3.98145 1.15466 4.03377 1.24805 4.12695C1.34142 4.22033 1.39448 4.34744 1.39453 4.47949C1.39453 4.6116 1.34146 4.73861 1.24805 4.83203C1.15465 4.92531 1.02752 4.97754 0.895508 4.97754H0.498047C0.366042 4.9775 0.238881 4.92534 0.145508 4.83203C0.0521965 4.73863 3.78862e-06 4.61153 0 4.47949C4.93518e-05 4.34744 0.0521296 4.22033 0.145508 4.12695C0.238881 4.03365 0.366044 3.98149 0.498047 3.98145H0.895508ZM6.31348 0.0253906C6.43867 -0.0162008 6.57535 -0.00624649 6.69336 0.0527344C6.81135 0.111842 6.9016 0.215628 6.94336 0.34082C6.98491 0.466006 6.975 0.602717 6.91602 0.720703L6.51758 1.5166C6.48834 1.57518 6.44788 1.62798 6.39844 1.6709C6.34904 1.71373 6.29152 1.74592 6.22949 1.7666C6.16754 1.78724 6.10224 1.79561 6.03711 1.79102C5.97186 1.78634 5.90712 1.76953 5.84863 1.74023C5.79035 1.71099 5.73803 1.67037 5.69531 1.62109C5.65254 1.57166 5.62023 1.5132 5.59961 1.45117C5.57911 1.38926 5.57053 1.32384 5.5752 1.25879C5.57992 1.19359 5.59765 1.12973 5.62695 1.07129L6.02441 0.275391V0.274414C6.08355 0.156412 6.18825 0.0671185 6.31348 0.0253906ZM4.47949 0C4.61149 3.05547e-05 4.73865 0.0522181 4.83203 0.145508C4.9253 0.238871 4.97749 0.366077 4.97754 0.498047V0.895508C4.97754 1.02748 4.92526 1.15465 4.83203 1.24805C4.73864 1.34144 4.61157 1.3945 4.47949 1.39453C4.34743 1.39449 4.22034 1.34143 4.12695 1.24805C4.03375 1.15466 3.98145 1.02746 3.98145 0.895508V0.498047C3.98149 0.366023 4.03361 0.238882 4.12695 0.145508C4.22034 0.05213 4.34744 4.07204e-05 4.47949 0Z" fill="white"/>
</svg>
