<svg width="13" height="13" viewBox="0 0 13 13" fill="none" xmlns="http://www.w3.org/2000/svg">
<path d="M4.75006 5.77683C4.82608 5.73294 4.88921 5.6698 4.9331 5.59377C4.97698 5.51774 5.00007 5.4315 5.00005 5.34371V0.843744C4.99961 0.764029 4.98011 0.685575 4.94318 0.614928C4.90625 0.54428 4.85297 0.483486 4.78777 0.437616C4.72258 0.391745 4.64736 0.362129 4.56839 0.351236C4.48942 0.340343 4.40899 0.34849 4.33381 0.374997C2.87443 0.891502 1.64715 1.91164 0.872596 3.25202C0.0980385 4.5924 -0.172996 6.16512 0.108216 7.68744C0.122792 7.76617 0.156059 7.84024 0.205219 7.90343C0.254378 7.96662 0.317994 8.01708 0.390714 8.05057C0.456248 8.08121 0.527742 8.097 0.600087 8.09682C0.687845 8.09685 0.774065 8.07379 0.850085 8.02994L4.75006 5.77683ZM4.00006 1.60124V5.05496L1.00758 6.78183C1.00008 6.68745 1.00008 6.59245 1.00008 6.49995C1.00097 5.48644 1.28151 4.49282 1.81082 3.6285C2.34013 2.76418 3.09768 2.06268 4.00006 1.60124ZM13 6.49995C13.0005 7.9269 12.5314 9.31435 11.6651 10.4483C10.7988 11.5821 9.58351 12.3995 8.20662 12.7741C6.82974 13.1488 5.36783 13.0599 4.04645 12.5213C2.72508 11.9826 1.61767 11.0241 0.895085 9.79368C0.861401 9.73684 0.839314 9.6739 0.830102 9.60847C0.820889 9.54305 0.824734 9.47645 0.841413 9.41253C0.858092 9.3486 0.887275 9.28861 0.927276 9.23603C0.967276 9.18345 1.0173 9.13932 1.07446 9.10618L6.00005 6.23933V0.499996C6.00005 0.367389 6.05273 0.240213 6.14649 0.146446C6.24026 0.052678 6.36744 0 6.50004 0C7.63433 0.000578754 8.74874 0.297832 9.73263 0.862248C10.7165 1.42666 11.5357 2.23861 12.1088 3.21748C12.1156 3.22748 12.1219 3.23748 12.1281 3.2481C12.1344 3.25873 12.1406 3.27123 12.1463 3.28248C12.7071 4.26195 13.0014 5.37129 13 6.49995Z" fill="#555555"/>
</svg>
