<svg width="13" height="13" viewBox="0 0 13 13" fill="none" xmlns="http://www.w3.org/2000/svg">
<path d="M11.4169 6.21138V11.9503H0.895508V6.21138C0.895459 6.14856 0.907787 6.08634 0.931789 6.02829C0.955791 5.97023 0.990997 5.91747 1.03539 5.87303L5.81784 1.09058C5.86226 1.04611 5.915 1.01084 5.97306 0.986773C6.03112 0.962705 6.09335 0.950317 6.1562 0.950317C6.21905 0.950317 6.28128 0.962705 6.33934 0.986773C6.39739 1.01084 6.45014 1.04611 6.49456 1.09058C8.36222 2.95824 9.40934 4.00536 11.277 5.87303C11.3214 5.91747 11.3566 5.97023 11.3806 6.02829C11.4046 6.08634 11.4169 6.14856 11.4169 6.21138Z" fill="#3BB1E1"/>
<path fill-rule="evenodd" clip-rule="evenodd" d="M6.2002 0C6.51832 0 6.82381 0.126692 7.04883 0.351562L12.0479 5.35059C12.1599 5.4618 12.2491 5.5944 12.3096 5.74023C12.3699 5.88591 12.4008 6.04251 12.4004 6.2002V12.2002C12.4004 12.3858 12.3265 12.564 12.1953 12.6953C12.064 12.8266 11.8858 12.9004 11.7002 12.9004H0.7002C0.514554 12.9004 0.336355 12.8266 0.205083 12.6953C0.0738627 12.564 4.75034e-06 12.3858 4.75034e-06 12.2002V6.2002C-0.00044086 6.04251 0.0304688 5.88591 0.0908251 5.74023C0.15129 5.5944 0.240494 5.46181 0.352544 5.35059L5.35157 0.351562C5.57659 0.126692 5.88208 3.93164e-06 6.2002 0ZM1.4004 6.2832V11.5H11V6.2832L6.2002 1.4834L1.4004 6.2832Z" fill="#3BB1E1"/>
</svg>
