<svg width="13" height="13" viewBox="0 0 13 13" fill="none" xmlns="http://www.w3.org/2000/svg">
<path d="M11.4136 5.33171L6.66115 6.65906L5.3338 11.4115C5.30526 11.5047 5.24798 11.5864 5.17016 11.6451C5.09234 11.7037 4.99797 11.7362 4.90056 11.7379C4.80315 11.7396 4.70769 11.7105 4.62784 11.6547C4.54799 11.5989 4.48785 11.5192 4.45602 11.4271L0.688652 1.27002C0.660939 1.18854 0.656554 1.10093 0.675989 1.01709C0.695425 0.933252 0.737908 0.856514 0.798644 0.795538C0.85938 0.734562 0.935951 0.691776 1.01971 0.67201C1.10348 0.652243 1.1911 0.656284 1.27269 0.683674L11.4298 4.45104C11.523 4.48223 11.6037 4.54233 11.6604 4.62259C11.717 4.70284 11.7466 4.79908 11.7448 4.8973C11.743 4.99552 11.7099 5.09061 11.6504 5.16873C11.5908 5.24686 11.5079 5.30395 11.4136 5.33171Z" fill="#37A3D0"/>
<path d="M11.5859 4.01646L1.43341 0.253139L1.42418 0.250253C1.26076 0.193987 1.08483 0.184714 0.916402 0.223491C0.747974 0.262268 0.593811 0.347537 0.471449 0.469599C0.349087 0.59166 0.263439 0.745613 0.224248 0.913944C0.185057 1.08228 0.193896 1.25823 0.249761 1.42178C0.250462 1.42494 0.251428 1.42803 0.252646 1.43102L4.01886 11.5835C4.08071 11.7645 4.19804 11.9215 4.35416 12.032C4.51029 12.1425 4.69727 12.2011 4.88856 12.1993H4.90587C5.10094 12.1978 5.29037 12.1337 5.44622 12.0164C5.60208 11.899 5.71612 11.7348 5.77154 11.5477L5.775 11.5362L7.0354 7.03474L11.5368 5.77434L11.5484 5.77087C11.734 5.71374 11.897 5.59952 12.0139 5.44446C12.1309 5.28939 12.196 5.10138 12.2 4.90718C12.204 4.71297 12.1466 4.52246 12.036 4.36276C11.9255 4.20305 11.7673 4.08227 11.5842 4.01762L11.5859 4.01646ZM6.53678 6.21467C6.46055 6.23607 6.3911 6.27672 6.3351 6.33271C6.27911 6.3887 6.23846 6.45815 6.21706 6.53439L4.88971 11.2759L4.88625 11.2661L1.12119 1.1188L11.2679 4.8827L11.2772 4.88617L6.53678 6.21467Z" fill="#37A3D0" stroke="#37A3D0" stroke-width="0.4" stroke-linejoin="bevel"/>
</svg>
