<svg width="14" height="15" viewBox="0 0 14 15" fill="none" xmlns="http://www.w3.org/2000/svg">
<path d="M6.7002 0C6.90148 0 7.09911 0.0522671 7.27539 0.149414L12.7764 3.1582C12.965 3.26149 13.1227 3.41364 13.2324 3.59863C13.3421 3.78368 13.4003 3.99483 13.4004 4.20996V10.1875L13.3887 10.3477C13.367 10.5062 13.3137 10.6594 13.2314 10.7979C13.1217 10.9824 12.9647 11.1342 12.7764 11.2373L7.27637 14.2471C7.09988 14.3445 6.90181 14.3965 6.7002 14.3965C6.49855 14.3964 6.29954 14.3456 6.12305 14.248V14.2471L0.624023 11.2373C0.43577 11.1342 0.278623 10.9824 0.168945 10.7979C0.0592225 10.6132 0.000487591 10.4023 0 10.1875V4.20898C0.000518253 3.99423 0.0592519 3.78326 0.168945 3.59863C0.278637 3.41417 0.435785 3.26225 0.624023 3.15918L6.12402 0.148438V0.149414C6.30046 0.0519714 6.49864 4.19001e-05 6.7002 0ZM1.40039 10.0693L6 12.585V7.67773L1.40039 5.16016V10.0693ZM10.4004 6.03906V8.69922C10.4003 8.88479 10.3265 9.06312 10.1953 9.19434C10.0641 9.32546 9.88573 9.39941 9.7002 9.39941C9.51469 9.39935 9.33629 9.32548 9.20508 9.19434C9.07393 9.06313 9.00006 8.88473 9 8.69922V6.80469L7.40039 7.68066V12.585L12 10.0664V5.16113L10.4004 6.03906ZM2.09473 3.94824L6.7002 6.4707L8.40137 5.53906L3.79688 3.0166L2.09473 3.94824ZM5.25488 2.2168L9.86035 4.73926L11.3047 3.94824L6.69922 1.42578L5.25488 2.2168Z" fill="#A1A1A1"/>
<path opacity="0.2" d="M6.7002 7.36281V13.7947C6.61622 13.7943 6.53368 13.7728 6.4602 13.7322L0.960195 10.7209C0.88166 10.678 0.816103 10.6147 0.770368 10.5377C0.724633 10.4608 0.700399 10.373 0.700195 10.2834V4.30594C0.700394 4.23591 0.715299 4.16671 0.743945 4.10281L6.7002 7.36281Z" fill="#626262"/>
</svg>
