<svg width="13" height="14" viewBox="0 0 13 14" fill="none" xmlns="http://www.w3.org/2000/svg">
<path d="M10.9916 10.7362H1.41446C1.33064 10.7356 1.24843 10.7132 1.17604 10.6709C1.10364 10.6287 1.0436 10.5682 1.00191 10.4955C0.960223 10.4228 0.93835 10.3404 0.938477 10.2566C0.938604 10.1728 0.960728 10.0904 1.00264 10.0179C1.3971 9.33549 1.89332 8.09105 1.89332 5.94755C1.89332 4.80454 2.34738 3.70834 3.15561 2.90011C3.96384 2.09188 5.06004 1.63782 6.20305 1.63782C7.34607 1.63782 8.44226 2.09188 9.2505 2.90011C10.0587 3.70834 10.5128 4.80454 10.5128 5.94755C10.5128 8.09165 11.0096 9.33549 11.4047 10.0179C11.4466 10.0905 11.4687 10.173 11.4688 10.2569C11.4689 10.3408 11.4469 10.4232 11.4051 10.496C11.3633 10.5687 11.303 10.6292 11.2305 10.6714C11.1579 10.7135 11.0756 10.7359 10.9916 10.7362Z" fill="#37A3D0"/>
<path fill-rule="evenodd" clip-rule="evenodd" d="M8.11758 11.9722C8.29751 11.9722 8.47075 12.0443 8.59804 12.1715C8.7251 12.2986 8.79709 12.4712 8.79726 12.651C8.79726 12.8309 8.72526 13.0041 8.59804 13.1314C8.47074 13.2587 8.29759 13.3297 8.11758 13.3297H4.2875C4.10752 13.3296 3.93431 13.2587 3.80703 13.1314C3.67986 13.0041 3.60781 12.8309 3.60781 12.651C3.60798 12.4712 3.67996 12.2986 3.80703 12.1715C3.93431 12.0443 4.10755 11.9723 4.2875 11.9722H8.11758ZM6.20254 0.958573C7.52541 0.958579 8.79438 1.48421 9.72988 2.41951C10.6653 3.35489 11.1906 4.62405 11.1908 5.94685C11.1908 7.49844 11.4736 8.78344 11.9896 9.67342C12.0921 9.84904 12.147 10.0492 12.1478 10.2525C12.1485 10.456 12.0958 10.6571 11.9945 10.8336C11.8932 11.01 11.7467 11.1564 11.5707 11.2584C11.3947 11.3604 11.195 11.4144 10.9916 11.4146H1.41347C1.21012 11.4142 1.01024 11.3605 0.834373 11.2584C0.658553 11.1562 0.512649 11.009 0.411521 10.8326C0.310468 10.6562 0.257439 10.4558 0.258201 10.2525C0.25904 10.0492 0.313012 9.84904 0.415427 9.67342C0.930504 8.78397 1.21426 7.4993 1.21426 5.94685C1.21444 4.62405 1.73982 3.35489 2.67519 2.41951C3.61069 1.48419 4.87966 0.958592 6.20254 0.958573ZM6.20254 2.31599C5.23975 2.31601 4.31603 2.69877 3.63515 3.37947C2.9544 4.06023 2.57186 4.98414 2.57168 5.94685C2.57168 7.582 2.29856 8.96593 1.74844 10.0572H10.6566C10.1057 8.96536 9.8334 7.5814 9.8334 5.94685C9.83321 4.98414 9.45067 4.06023 8.76992 3.37947C8.08904 2.69879 7.16532 2.316 6.20254 2.31599ZM3.00039 0.0161899C3.08757 0.0356544 3.17049 0.0722077 3.24355 0.123612C3.31658 0.175053 3.37942 0.240491 3.42715 0.315995C3.47475 0.391417 3.50677 0.476146 3.52187 0.564041C3.53688 0.651983 3.53388 0.742685 3.51406 0.829666C3.49412 0.916783 3.45749 1.00003 3.40566 1.07283C3.35387 1.14549 3.28797 1.20719 3.2123 1.25447C2.38937 1.77826 1.72228 2.51406 1.28164 3.38435L1.28066 3.38631C1.22347 3.49666 1.13683 3.58926 1.03066 3.65389C0.924451 3.71847 0.80243 3.75247 0.678123 3.75252C0.561652 3.75245 0.446622 3.72272 0.345115 3.6656C0.243829 3.60848 0.15845 3.52572 0.0980446 3.42635C0.0377955 3.32697 0.00436573 3.2134 0.00038837 3.09724C-0.00351547 2.98092 0.0220441 2.86465 0.0755837 2.76131H0.0765602C0.630821 1.67882 1.46236 0.762537 2.48672 0.10701H2.48769C2.56297 0.0589645 2.64682 0.0258497 2.73476 0.0103305C2.82275 -0.00517208 2.91318 -0.00323267 3.00039 0.0161899ZM9.67031 0.0103305C9.75822 0.0258478 9.84213 0.0589961 9.91738 0.10701H9.91836C10.9431 0.762764 11.7752 1.67932 12.3295 2.76228L12.3314 2.76619C12.4085 2.92525 12.4203 3.1092 12.3646 3.27693C12.3088 3.44445 12.1903 3.58428 12.0336 3.6656C11.8766 3.74698 11.6931 3.76365 11.5238 3.71248C11.3548 3.66122 11.2119 3.54575 11.1264 3.39119L11.1234 3.38435C10.6828 2.51409 10.0157 1.77825 9.19277 1.25447C9.11714 1.2072 9.05119 1.14546 8.99941 1.07283C8.94761 1.00004 8.91095 0.916755 8.89101 0.829666C8.8712 0.742693 8.8682 0.651976 8.8832 0.564041C8.8983 0.476138 8.93032 0.39142 8.97793 0.315995C9.02565 0.240472 9.08848 0.175064 9.16152 0.123612C9.2346 0.0721838 9.31747 0.0356603 9.40469 0.0161899C9.49187 -0.00324189 9.58233 -0.00515157 9.67031 0.0103305Z" fill="#37A3D0"/>
</svg>
