<svg width="13" height="14" viewBox="0 0 13 14" fill="none" xmlns="http://www.w3.org/2000/svg">
<path opacity="0.2" d="M11.4939 7.13458L7.90566 8.54803L6.60094 12.4353C6.57048 12.5242 6.51563 12.6009 6.44376 12.655C6.3719 12.7092 6.28645 12.7382 6.19891 12.7382C6.11137 12.7382 6.02593 12.7092 5.95406 12.655C5.8822 12.6009 5.82735 12.5242 5.79689 12.4353L4.49431 8.54803L0.906069 7.13458C0.824001 7.10158 0.753221 7.04216 0.703238 6.96431C0.653256 6.88645 0.626465 6.79389 0.626465 6.69905C0.626465 6.60422 0.653256 6.51165 0.703238 6.4338C0.753221 6.35594 0.824001 6.29652 0.906069 6.26352L4.49431 4.8524L5.79903 0.965136C5.82949 0.876228 5.88434 0.79955 5.95621 0.745403C6.02808 0.691255 6.11352 0.662231 6.20106 0.662231C6.2886 0.662231 6.37404 0.691255 6.44591 0.745403C6.51778 0.79955 6.57262 0.876228 6.60309 0.965136L7.9078 4.8524L11.496 6.26584C11.5773 6.29951 11.6472 6.35917 11.6965 6.4369C11.7457 6.51463 11.772 6.60674 11.7717 6.70101C11.7715 6.79529 11.7448 6.88725 11.6952 6.96469C11.6455 7.04213 11.5753 7.10139 11.4939 7.13458Z" fill="#A1A1A1"/>
<path d="M6.2002 0C6.41998 0 6.63317 0.0733893 6.81055 0.207031C6.94322 0.307068 7.05142 0.437001 7.12793 0.585938L7.19336 0.741211L7.19434 0.742188L8.39941 4.33691L11.7139 5.64258L11.7158 5.64355C11.9202 5.72578 12.0936 5.8727 12.2148 6.06152C12.336 6.25032 12.4004 6.47323 12.4004 6.7002C12.4004 6.92716 12.336 7.15007 12.2148 7.33887C12.0936 7.52769 11.9202 7.67461 11.7158 7.75684L11.7139 7.75781L8.40039 9.0625L7.19434 12.6582L7.19336 12.6592C7.12013 12.8729 6.98752 13.0599 6.81055 13.1934C6.63317 13.327 6.41998 13.4004 6.2002 13.4004C5.98041 13.4004 5.76722 13.327 5.58984 13.1934C5.41287 13.0599 5.28026 12.8729 5.20703 12.6592L5.20605 12.6582L4 9.0625L0.686523 7.75781L0.68457 7.75684C0.480203 7.67461 0.306804 7.52769 0.185547 7.33887C0.0643454 7.15007 0 6.92716 0 6.7002C0 6.47323 0.0643454 6.25032 0.185547 6.06152C0.306804 5.8727 0.480203 5.72578 0.68457 5.64355L0.686523 5.64258L4 4.33691L5.20605 0.742188L5.20703 0.741211C5.28026 0.527491 5.41287 0.340465 5.58984 0.207031C5.76722 0.0733893 5.98041 0 6.2002 0ZM5.08691 5.0752C5.05685 5.16461 5.00908 5.24721 4.94531 5.31641C4.8813 5.38575 4.80258 5.44098 4.71484 5.47559L1.60547 6.7002L4.71484 7.9248C4.80258 7.95941 4.8813 8.01464 4.94531 8.08398C5.00908 8.15318 5.05685 8.23578 5.08691 8.3252L6.2002 11.6406L7.31348 8.3252L7.37207 8.19727C7.39583 8.15685 7.4232 8.11857 7.45508 8.08398C7.51909 8.01464 7.59781 7.95941 7.68555 7.9248L10.7939 6.7002L7.68555 5.47559C7.59781 5.44098 7.51909 5.38575 7.45508 5.31641C7.4232 5.28182 7.39583 5.24354 7.37207 5.20312L7.31348 5.0752L6.2002 1.75879L5.08691 5.0752Z" fill="#A1A1A1"/>
</svg>
