<svg width="13" height="13" viewBox="0 0 13 13" fill="none" xmlns="http://www.w3.org/2000/svg">
<path d="M12.0413 6.19435C11.9157 6.19435 11.7952 6.24648 11.7064 6.33928C11.6176 6.43208 11.5677 6.55794 11.5677 6.68918C11.5667 7.60755 11.2171 8.48803 10.5955 9.13741C9.97398 9.7868 9.13122 10.1521 8.2522 10.153H1.81726L2.43003 9.51346C2.47403 9.46749 2.50894 9.41291 2.53276 9.35284C2.55657 9.29277 2.56883 9.22838 2.56883 9.16336C2.56883 9.09835 2.55657 9.03396 2.53276 8.97389C2.50894 8.91382 2.47403 8.85924 2.43003 8.81327C2.38602 8.76729 2.33378 8.73082 2.27628 8.70594C2.21879 8.68106 2.15716 8.66825 2.09493 8.66825C2.0327 8.66825 1.97107 8.68106 1.91358 8.70594C1.85608 8.73082 1.80384 8.76729 1.75983 8.81327L0.338923 10.2978C0.294886 10.3437 0.259951 10.3983 0.236116 10.4584C0.212281 10.5185 0.200012 10.5828 0.200012 10.6479C0.200012 10.7129 0.212281 10.7773 0.236116 10.8374C0.259951 10.8974 0.294886 10.952 0.338923 10.998L1.75983 12.4825C1.80384 12.5285 1.85608 12.5649 1.91358 12.5898C1.97107 12.6147 2.0327 12.6275 2.09493 12.6275C2.15716 12.6275 2.21879 12.6147 2.27628 12.5898C2.33378 12.5649 2.38602 12.5285 2.43003 12.4825C2.47403 12.4365 2.50894 12.3819 2.53276 12.3219C2.55657 12.2618 2.56883 12.1974 2.56883 12.1324C2.56883 12.0674 2.55657 12.003 2.53276 11.9429C2.50894 11.8828 2.47403 11.8283 2.43003 11.7823L1.81726 11.1427H8.2522C9.38236 11.1414 10.4659 10.6718 11.265 9.83686C12.0642 9.00194 12.5137 7.86993 12.5149 6.68918C12.5149 6.55794 12.465 6.43208 12.3762 6.33928C12.2874 6.24648 12.1669 6.19435 12.0413 6.19435Z" fill="#EBBD00" stroke="#EBBD00" stroke-width="0.4"/>
<path d="M0.200012 6.13831C0.201266 4.95756 0.650776 3.82555 1.44992 2.99064C2.24906 2.15572 3.33258 1.68609 4.46274 1.68478H10.8977L10.2849 1.04521C10.196 0.952357 10.1461 0.826424 10.1461 0.695112C10.1461 0.5638 10.196 0.437867 10.2849 0.345015C10.3738 0.252164 10.4943 0.200001 10.62 0.200001C10.7457 0.200001 10.8662 0.252164 10.9551 0.345015L12.376 1.82952C12.4201 1.87548 12.455 1.93006 12.4788 1.99013C12.5027 2.0502 12.5149 2.11459 12.5149 2.17962C12.5149 2.24465 12.5027 2.30904 12.4788 2.36911C12.455 2.42919 12.4201 2.48376 12.376 2.52972L10.9551 4.01423C10.8662 4.10708 10.7457 4.15924 10.62 4.15924C10.4943 4.15924 10.3738 4.10708 10.2849 4.01423C10.196 3.92137 10.1461 3.79544 10.1461 3.66413C10.1461 3.53282 10.196 3.40688 10.2849 3.31403L10.8977 2.67446H4.46274C3.58371 2.67544 2.74096 3.04069 2.1194 3.69008C1.49783 4.33947 1.14822 5.21994 1.14728 6.13831C1.14728 6.26955 1.09738 6.39541 1.00856 6.48821C0.919736 6.58101 0.799264 6.63315 0.673648 6.63315C0.548032 6.63315 0.427561 6.58101 0.338737 6.48821C0.249913 6.39541 0.200012 6.26955 0.200012 6.13831Z" fill="#3CB4E5" stroke="#5D97CC" stroke-width="0.4"/>
<path d="M12.0413 6.19435C11.9157 6.19435 11.7952 6.24648 11.7064 6.33928C11.6176 6.43208 11.5677 6.55794 11.5677 6.68918C11.5667 7.60755 11.2171 8.48803 10.5955 9.13741C9.97398 9.7868 9.13122 10.1521 8.2522 10.153H1.81726L2.43003 9.51346C2.47403 9.46749 2.50894 9.41291 2.53276 9.35284C2.55657 9.29277 2.56883 9.22838 2.56883 9.16336C2.56883 9.09835 2.55657 9.03396 2.53276 8.97389C2.50894 8.91382 2.47403 8.85924 2.43003 8.81327C2.38602 8.76729 2.33378 8.73082 2.27628 8.70594C2.21879 8.68106 2.15716 8.66825 2.09493 8.66825C2.0327 8.66825 1.97107 8.68106 1.91358 8.70594C1.85608 8.73082 1.80384 8.76729 1.75983 8.81327L0.338923 10.2978C0.294886 10.3437 0.259951 10.3983 0.236116 10.4584C0.212281 10.5185 0.200012 10.5828 0.200012 10.6479C0.200012 10.7129 0.212281 10.7773 0.236116 10.8374C0.259951 10.8974 0.294886 10.952 0.338923 10.998L1.75983 12.4825C1.80384 12.5285 1.85608 12.5649 1.91358 12.5898C1.97107 12.6147 2.0327 12.6275 2.09493 12.6275C2.15716 12.6275 2.21879 12.6147 2.27628 12.5898C2.33378 12.5649 2.38602 12.5285 2.43003 12.4825C2.47403 12.4365 2.50894 12.3819 2.53276 12.3219C2.55657 12.2618 2.56883 12.1974 2.56883 12.1324C2.56883 12.0674 2.55657 12.003 2.53276 11.9429C2.50894 11.8828 2.47403 11.8283 2.43003 11.7823L1.81726 11.1427H8.2522C9.38236 11.1414 10.4659 10.6718 11.265 9.83686C12.0642 9.00194 12.5137 7.86993 12.5149 6.68918C12.5149 6.55794 12.465 6.43208 12.3762 6.33928C12.2874 6.24648 12.1669 6.19435 12.0413 6.19435Z" fill="#9C9C9C" stroke="#9C9C9C" stroke-width="0.4"/>
<path d="M0.200012 6.13831C0.201266 4.95756 0.650776 3.82555 1.44992 2.99064C2.24906 2.15572 3.33258 1.68609 4.46274 1.68478H10.8977L10.2849 1.04521C10.196 0.952357 10.1461 0.826424 10.1461 0.695112C10.1461 0.5638 10.196 0.437867 10.2849 0.345015C10.3738 0.252164 10.4943 0.200001 10.62 0.200001C10.7457 0.200001 10.8662 0.252164 10.9551 0.345015L12.376 1.82952C12.4201 1.87548 12.455 1.93006 12.4788 1.99013C12.5027 2.0502 12.5149 2.11459 12.5149 2.17962C12.5149 2.24465 12.5027 2.30904 12.4788 2.36911C12.455 2.42919 12.4201 2.48376 12.376 2.52972L10.9551 4.01423C10.8662 4.10708 10.7457 4.15924 10.62 4.15924C10.4943 4.15924 10.3738 4.10708 10.2849 4.01423C10.196 3.92137 10.1461 3.79544 10.1461 3.66413C10.1461 3.53282 10.196 3.40688 10.2849 3.31403L10.8977 2.67446H4.46274C3.58371 2.67544 2.74096 3.04069 2.1194 3.69008C1.49783 4.33947 1.14822 5.21994 1.14728 6.13831C1.14728 6.26955 1.09738 6.39541 1.00856 6.48821C0.919736 6.58101 0.799264 6.63315 0.673648 6.63315C0.548032 6.63315 0.427561 6.58101 0.338737 6.48821C0.249913 6.39541 0.200012 6.26955 0.200012 6.13831Z" fill="#9C9C9C" stroke="#9C9C9C" stroke-width="0.4"/>
</svg>
