<svg width="38" height="41" viewBox="0 0 38 41" fill="none" xmlns="http://www.w3.org/2000/svg">
<g opacity="0.41">
<path fill-rule="evenodd" clip-rule="evenodd" d="M26.4287 0.243604C27.1131 0.105949 27.8141 0.189236 28.4346 0.486768C29.055 0.784407 29.5589 1.27906 29.8799 1.89888C30.1603 2.44049 30.2897 3.05401 30.2617 3.67427L30.2403 3.94087L30.2393 3.9438L28.6817 16.4965L36.7696 25.2045L36.7715 25.2075C37.238 25.7174 37.5319 26.3698 37.6192 27.0727C37.7063 27.7753 37.5842 28.4991 37.2735 29.1469C36.9628 29.7944 36.4752 30.3416 35.8731 30.7133C35.2701 31.0854 34.5766 31.2659 33.8867 31.2211H33.8838L22.0313 30.3647L13.2168 39.4379L13.2149 39.4399C12.7135 39.9493 12.08 40.3004 11.3965 40.4379C10.7121 40.5756 10.0102 40.4923 9.38967 40.1948C8.76962 39.8972 8.26634 39.4021 7.94533 38.7827C7.62475 38.1636 7.50251 37.4495 7.58596 36.7397V36.7377L9.1426 24.185L1.05666 15.477L1.05373 15.4741C0.587033 14.9642 0.294388 14.3109 0.207052 13.6079C0.119943 12.9055 0.242296 12.1832 0.552755 11.5356C0.863506 10.8877 1.35053 10.3391 1.95315 9.96724C2.55592 9.5953 3.2479 9.41577 3.93752 9.4604H3.9424L15.7949 10.3149L24.6084 1.2436L24.6113 1.24165C25.1127 0.732156 25.7452 0.381159 26.4287 0.243604Z" fill="url(#paint0_linear_2859_709)"/>
</g>
<defs>
<linearGradient id="paint0_linear_2859_709" x1="40.4686" y1="7.59675" x2="-14.3468" y2="33.4703" gradientUnits="userSpaceOnUse">
<stop stop-color="#73D6FF"/>
<stop stop-color="#98E1FF"/>
<stop offset="0.0001" stop-color="#CEF0FF"/>
<stop offset="0.788462" stop-color="#E8F8FF" stop-opacity="0.46"/>
<stop offset="1" stop-color="white"/>
</linearGradient>
</defs>
</svg>
