<svg width="11" height="11" viewBox="0 0 11 11" fill="none" xmlns="http://www.w3.org/2000/svg">
<path d="M9.93346 5.1272C9.83021 5.1272 9.73118 5.17005 9.65817 5.24633C9.58516 5.32261 9.54415 5.42607 9.54415 5.53394C9.54337 6.28882 9.256 7.01255 8.74509 7.54633C8.23418 8.08011 7.54145 8.38034 6.81892 8.38115H1.52954L2.03322 7.85544C2.06939 7.81764 2.09808 7.77278 2.11766 7.7234C2.13723 7.67403 2.14731 7.62111 2.14731 7.56766C2.14731 7.51422 2.13723 7.4613 2.11766 7.41192C2.09808 7.36255 2.06939 7.31768 2.03322 7.27989C1.99705 7.2421 1.9541 7.21212 1.90684 7.19167C1.85958 7.17122 1.80893 7.16069 1.75778 7.16069C1.70662 7.16069 1.65597 7.17122 1.60871 7.19167C1.56145 7.21212 1.5185 7.2421 1.48233 7.27989L0.314377 8.50013C0.27818 8.5379 0.249464 8.58276 0.229872 8.63214C0.21028 8.68152 0.200195 8.73444 0.200195 8.7879C0.200195 8.84135 0.21028 8.89428 0.229872 8.94366C0.249464 8.99303 0.27818 9.03789 0.314377 9.07567L1.48233 10.2959C1.5185 10.3337 1.56145 10.3637 1.60871 10.3841C1.65597 10.4046 1.70662 10.4151 1.75778 10.4151C1.80893 10.4151 1.85958 10.4046 1.90684 10.3841C1.9541 10.3637 1.99705 10.3337 2.03322 10.2959C2.06939 10.2581 2.09808 10.2132 2.11766 10.1639C2.13723 10.1145 2.14731 10.0616 2.14731 10.0081C2.14731 9.95469 2.13723 9.90177 2.11766 9.85239C2.09808 9.80301 2.06939 9.75815 2.03322 9.72036L1.52954 9.19464H6.81892C7.74788 9.19356 8.63851 8.80754 9.29538 8.12126C9.95226 7.43498 10.3218 6.50449 10.3228 5.53394C10.3228 5.42607 10.2818 5.32261 10.2088 5.24633C10.1357 5.17005 10.0367 5.1272 9.93346 5.1272Z" fill="#EBBD00" stroke="#EBBD00" stroke-width="0.4"/>
<path d="M0.200195 5.08111C0.201226 4.11056 0.570713 3.18007 1.22759 2.49379C1.88447 1.80751 2.77509 1.42149 3.70406 1.42041H8.99344L8.48976 0.894693C8.41671 0.818372 8.37567 0.714857 8.37567 0.606922C8.37567 0.498986 8.41671 0.395472 8.48976 0.31915C8.56281 0.242828 8.66189 0.199951 8.7652 0.199951C8.86851 0.199951 8.96759 0.242828 9.04064 0.31915L10.2086 1.53938C10.2448 1.57716 10.2735 1.62202 10.2931 1.6714C10.3127 1.72077 10.3228 1.7737 10.3228 1.82715C10.3228 1.88061 10.3127 1.93354 10.2931 1.98291C10.2735 2.03229 10.2448 2.07715 10.2086 2.11493L9.04064 3.33516C8.96759 3.41148 8.86851 3.45436 8.7652 3.45436C8.66189 3.45436 8.56281 3.41148 8.48976 3.33516C8.41671 3.25884 8.37567 3.15532 8.37567 3.04739C8.37567 2.93945 8.41671 2.83594 8.48976 2.75962L8.99344 2.2339H3.70406C2.98152 2.23471 2.2888 2.53494 1.77789 3.06872C1.26697 3.6025 0.979605 4.32623 0.978832 5.08111C0.978832 5.18899 0.937815 5.29244 0.864803 5.36872C0.791792 5.445 0.692767 5.48785 0.589514 5.48785C0.48626 5.48785 0.387235 5.445 0.314224 5.36872C0.241213 5.29244 0.200195 5.18899 0.200195 5.08111Z" fill="#3CB4E5" stroke="#5D97CC" stroke-width="0.4"/>
<path d="M9.93346 5.1272C9.83021 5.1272 9.73118 5.17005 9.65817 5.24633C9.58516 5.32261 9.54415 5.42607 9.54415 5.53394C9.54337 6.28882 9.256 7.01255 8.74509 7.54633C8.23418 8.08011 7.54145 8.38034 6.81892 8.38115H1.52954L2.03322 7.85544C2.06939 7.81764 2.09808 7.77278 2.11766 7.7234C2.13723 7.67403 2.14731 7.62111 2.14731 7.56766C2.14731 7.51422 2.13723 7.4613 2.11766 7.41192C2.09808 7.36255 2.06939 7.31768 2.03322 7.27989C1.99705 7.2421 1.9541 7.21212 1.90684 7.19167C1.85958 7.17122 1.80893 7.16069 1.75778 7.16069C1.70662 7.16069 1.65597 7.17122 1.60871 7.19167C1.56145 7.21212 1.5185 7.2421 1.48233 7.27989L0.314377 8.50013C0.27818 8.5379 0.249464 8.58276 0.229872 8.63214C0.21028 8.68152 0.200195 8.73444 0.200195 8.7879C0.200195 8.84135 0.21028 8.89428 0.229872 8.94366C0.249464 8.99303 0.27818 9.03789 0.314377 9.07567L1.48233 10.2959C1.5185 10.3337 1.56145 10.3637 1.60871 10.3841C1.65597 10.4046 1.70662 10.4151 1.75778 10.4151C1.80893 10.4151 1.85958 10.4046 1.90684 10.3841C1.9541 10.3637 1.99705 10.3337 2.03322 10.2959C2.06939 10.2581 2.09808 10.2132 2.11766 10.1639C2.13723 10.1145 2.14731 10.0616 2.14731 10.0081C2.14731 9.95469 2.13723 9.90177 2.11766 9.85239C2.09808 9.80301 2.06939 9.75815 2.03322 9.72036L1.52954 9.19464H6.81892C7.74788 9.19356 8.63851 8.80754 9.29538 8.12126C9.95226 7.43498 10.3218 6.50449 10.3228 5.53394C10.3228 5.42607 10.2818 5.32261 10.2088 5.24633C10.1357 5.17005 10.0367 5.1272 9.93346 5.1272Z" fill="#9C9C9C" stroke="#9C9C9C" stroke-width="0.4"/>
<path d="M0.200195 5.08111C0.201226 4.11056 0.570713 3.18007 1.22759 2.49379C1.88447 1.80751 2.77509 1.42149 3.70406 1.42041H8.99344L8.48976 0.894693C8.41671 0.818372 8.37567 0.714857 8.37567 0.606922C8.37567 0.498986 8.41671 0.395472 8.48976 0.31915C8.56281 0.242828 8.66189 0.199951 8.7652 0.199951C8.86851 0.199951 8.96759 0.242828 9.04064 0.31915L10.2086 1.53938C10.2448 1.57716 10.2735 1.62202 10.2931 1.6714C10.3127 1.72077 10.3228 1.7737 10.3228 1.82715C10.3228 1.88061 10.3127 1.93354 10.2931 1.98291C10.2735 2.03229 10.2448 2.07715 10.2086 2.11493L9.04064 3.33516C8.96759 3.41148 8.86851 3.45436 8.7652 3.45436C8.66189 3.45436 8.56281 3.41148 8.48976 3.33516C8.41671 3.25884 8.37567 3.15532 8.37567 3.04739C8.37567 2.93945 8.41671 2.83594 8.48976 2.75962L8.99344 2.2339H3.70406C2.98152 2.23471 2.2888 2.53494 1.77789 3.06872C1.26697 3.6025 0.979605 4.32623 0.978832 5.08111C0.978832 5.18899 0.937815 5.29244 0.864803 5.36872C0.791792 5.445 0.692767 5.48785 0.589514 5.48785C0.48626 5.48785 0.387235 5.445 0.314224 5.36872C0.241213 5.29244 0.200195 5.18899 0.200195 5.08111Z" fill="#9C9C9C" stroke="#9C9C9C" stroke-width="0.4"/>
</svg>
